<svg width="620" height="620" viewBox="0 0 620 620" fill="none" xmlns="http://www.w3.org/2000/svg">
<g clip-path="url(#clip0_9_40)">
<path d="M0 100C0 44.7715 44.7715 0 100 0H520C575.228 0 620 44.7715 620 100V520C620 575.228 575.228 620 520 620H100C44.7715 620 0 575.228 0 520V100Z" fill="white"/>
<path fill-rule="evenodd" clip-rule="evenodd" d="M549.408 98.7276C546.15 97.5841 542.723 97 539.27 97H235.313C232.396 97 229.501 97.4934 226.749 98.4594V98.4594C225.332 98.9569 223.961 99.5768 222.651 100.312L221.469 100.976C218.343 102.732 215.458 104.886 212.887 107.385L211.773 108.469C208.302 111.842 205.308 115.673 202.871 119.854L202.333 120.778C200.428 124.047 198.831 127.484 197.562 131.048L196.98 132.684C195.499 136.843 194.365 141.118 193.592 145.465L192.874 149.496C192.033 154.219 191.533 158.996 191.378 163.79L190.918 177.979C190.856 179.892 190.498 181.785 189.856 183.588V183.588C189.455 184.714 188.946 185.798 188.336 186.825L187.29 188.588C186.004 190.755 184.143 192.523 181.914 193.697V193.697C180.022 194.693 177.922 195.231 175.784 195.266L116.196 196.25C113.646 196.292 111.202 197.281 109.34 199.024V199.024C108.143 200.145 107.231 201.536 106.681 203.081L105.846 205.425C104.876 208.149 104.492 211.048 104.72 213.931L104.89 216.076C105.068 218.324 105.739 220.505 106.855 222.464L107.076 222.852C107.887 224.276 108.96 225.533 110.238 226.559V226.559C112.547 228.411 115.419 229.421 118.379 229.421H177.452C179.025 229.421 180.59 229.205 182.104 228.78V228.78C183.2 228.472 184.262 228.057 185.276 227.539L188.05 226.123C190.938 224.648 193.649 222.848 196.129 220.759L196.341 220.58C198.941 218.39 201.254 215.881 203.225 213.113V213.113C204.908 210.75 206.332 208.212 207.472 205.544L208.534 203.059C209.825 200.039 210.895 196.894 211.718 193.714V193.714C212.971 188.876 213.688 183.862 213.831 178.866L214.402 158.796L215.158 154.02C215.699 150.601 216.728 147.277 218.213 144.15L218.996 142.5C220.118 140.137 221.607 137.967 223.409 136.07L223.989 135.459C225.96 133.384 228.338 131.739 230.976 130.628V130.628C233.524 129.555 236.26 129.002 239.025 129.002H539.122C541.108 129.002 543.076 129.382 544.919 130.121V130.121C546.711 130.84 548.353 131.886 549.762 133.205L551.389 134.727C553.584 136.782 555.426 139.183 556.842 141.834L557.172 142.452C558.661 145.24 559.725 148.236 560.328 151.339L560.857 154.062C561.468 157.211 561.776 160.411 561.776 163.619V473.04C561.776 475.412 561.537 477.785 561.064 480.109V480.109C560.494 482.907 559.585 485.635 558.361 488.215L557.629 489.755C556.215 492.734 554.253 495.42 551.846 497.673L551.338 498.148C549.405 499.958 547.167 501.41 544.727 502.438V502.438C541.974 503.597 539.018 504.194 536.032 504.194H236.899C235.53 504.194 234.168 504.007 232.85 503.637V503.637C231.56 503.274 230.325 502.741 229.177 502.05L228.47 501.624C226.441 500.404 224.632 498.85 223.119 497.029L222.374 496.132C220.735 494.16 219.375 491.971 218.332 489.628L217.751 488.322C216.57 485.67 215.695 482.893 215.141 480.043L213.616 472.193L211.829 464.663C210.927 460.864 209.661 457.16 208.049 453.603L207.565 452.534C205.842 448.733 203.662 445.158 201.073 441.886L200.077 440.626C198.108 438.139 195.838 435.905 193.32 433.976L192.301 433.196C189.761 431.25 186.929 429.719 183.91 428.66V428.66C180.684 427.527 177.29 426.949 173.871 426.949H110.789C108.163 426.949 105.616 427.844 103.568 429.488V429.488C102.035 430.717 100.842 432.318 100.101 434.138L99.438 435.768C98.5458 437.96 98.087 440.305 98.087 442.671V444.584C98.087 446.784 98.5135 448.963 99.3428 451.001L99.8151 452.162C100.739 454.432 102.298 456.389 104.304 457.798V457.798C106.398 459.268 108.886 460.075 111.444 460.114L177.034 461.115C178.851 461.143 180.617 461.716 182.104 462.76V462.76C182.677 463.162 183.201 463.628 183.666 464.151L184.727 465.343C186.165 466.958 187.366 468.77 188.294 470.724L188.593 471.354C189.553 473.377 190.265 475.509 190.711 477.704L193.183 489.849L195.522 497.074C196.581 500.345 197.882 503.532 199.416 506.609L199.527 506.832C201.579 510.948 204.052 514.84 206.906 518.447L207.944 519.759C209.627 521.885 211.489 523.862 213.511 525.669L214.699 526.731C217.627 529.346 220.949 531.482 224.544 533.059V533.059C229.258 535.128 234.351 536.196 239.499 536.196H373.943H395.948H538.942C542.607 536.196 546.241 535.524 549.664 534.213V534.213C551.967 533.331 554.152 532.169 556.17 530.752L558.426 529.168C562.215 526.509 565.633 523.357 568.591 519.797L569.636 518.54L572.315 514.36C575.235 509.805 577.625 504.931 579.44 499.835V499.835C580.761 496.126 581.771 492.315 582.461 488.44L582.567 487.842C583.376 483.303 583.782 478.702 583.782 474.092V161.143C583.782 155.908 583.371 150.682 582.553 145.511L582.21 143.347L580.214 136.622C578.928 132.287 577.234 128.084 575.154 124.069L574.494 122.795C572.831 119.583 570.863 116.539 568.619 113.703L567.71 112.554C565.336 109.553 562.59 106.867 559.538 104.56L557.729 103.193C555.203 101.283 552.396 99.7765 549.408 98.7276V98.7276Z" fill="black"/>
<path d="M40.674 275.439C42.7205 273.524 45.4188 272.458 48.222 272.458H193.082C196.27 272.458 199.435 272.997 202.442 274.053V274.053C205.673 275.187 208.671 276.899 211.29 279.105L211.978 279.684C214.11 281.481 216.007 283.538 217.624 285.809L218.93 287.643C221.662 291.479 223.849 295.674 225.428 300.11L227.09 304.778C228.061 307.504 228.804 310.305 229.311 313.154V313.154C229.85 316.18 230.121 319.247 230.121 322.321V327.509C230.121 332.726 229.558 337.928 228.441 343.024L228.175 344.236C227.378 347.873 226.241 351.426 224.778 354.85L224.712 355.005C223.083 358.816 221.049 362.441 218.645 365.817L217.03 368.085C215.285 370.534 213.239 372.754 210.939 374.691L210.661 374.926C207.933 377.224 204.857 379.071 201.547 380.399V380.399C197.579 381.991 193.344 382.809 189.069 382.809H70.9481C68.6803 382.809 66.4854 382.007 64.751 380.546V380.546C63.9275 379.852 63.2264 379.025 62.6768 378.099L61.4292 375.997C60.2082 373.94 59.4317 371.65 59.1498 369.274V369.274C58.9128 367.278 59.0291 365.255 59.4935 363.299L60.3286 359.781C60.8673 357.512 61.9611 355.412 63.5117 353.671L63.8968 353.238C64.6794 352.359 65.6026 351.616 66.6288 351.04V351.04C68.1898 350.163 69.9472 349.695 71.7375 349.679L190.342 348.645C193.728 348.616 197.025 347.558 199.796 345.612V345.612C202.158 343.954 204.05 341.712 205.288 339.104L205.852 337.918C206.312 336.95 206.668 335.935 206.916 334.892V334.892C207.191 333.735 207.329 332.55 207.329 331.361V325.525C207.329 322.55 206.704 319.607 205.494 316.889L205.082 315.964C203.977 313.48 202.293 311.296 200.173 309.595L199.214 308.826C198.343 308.127 197.36 307.581 196.307 307.211V307.211C195.279 306.851 194.199 306.662 193.11 306.654L49.0825 305.596C46.2085 305.574 43.4256 304.585 41.1839 302.786V302.786C39.8377 301.706 38.7244 300.364 37.9113 298.842L37.6278 298.311C37.0689 297.265 36.6472 296.151 36.3732 294.996V294.996C36.1252 293.952 36 292.882 36 291.809V287.471C36 284.852 36.5829 282.265 37.7064 279.899L38.2446 278.765C38.8387 277.514 39.6628 276.386 40.674 275.439V275.439Z" fill="black"/>
<path d="M420.209 162.798C421.842 162.34 423.53 162.107 425.227 162.107H442.193C445.393 162.107 448.565 162.694 451.553 163.838V163.838C454.284 164.884 456.82 166.379 459.057 168.264L459.68 168.788C462.235 170.941 464.425 173.492 466.166 176.344L466.239 176.463C467.577 178.655 468.645 181.001 469.42 183.449L470.122 185.669C470.971 188.348 471.596 191.093 471.992 193.875L472.969 200.73V253.39C472.969 258.001 472.562 262.602 471.754 267.141L471.29 269.747C470.838 272.286 470.176 274.782 469.311 277.211L468.443 279.649C467.277 282.924 465.571 285.982 463.398 288.695L462.967 289.232C460.748 292.001 458.018 294.317 454.924 296.055V296.055C452.816 297.239 450.563 298.141 448.22 298.739L447.325 298.968C444.522 299.683 441.64 300.045 438.747 300.045H431.296C427.661 300.045 424.045 299.513 420.564 298.466L419.087 298.022C416.255 297.169 413.577 295.869 411.156 294.169L410.618 293.791C409.226 292.814 407.953 291.679 406.822 290.409V290.409C405.345 288.751 404.128 286.878 403.211 284.855L401.376 280.807C399.858 277.457 398.705 273.955 397.937 270.359L396.735 264.733L395.949 257.009V204.04L396.864 196.33C397.301 192.65 398.084 189.02 399.202 185.487L399.831 183.5C400.386 181.747 401.083 180.043 401.917 178.404L402.286 177.68C403.813 174.678 405.852 171.965 408.311 169.663V169.663C410.535 167.581 413.072 165.863 415.831 164.572L417.359 163.857C418.279 163.427 419.232 163.073 420.209 162.798V162.798Z" fill="black"/>
<path d="M317.841 330.83C320.653 330.172 323.531 329.84 326.418 329.84H331.463C334.102 329.84 336.734 330.121 339.314 330.679L340.941 331.03C344.057 331.703 347.033 332.91 349.737 334.598V334.598C351.72 335.835 353.538 337.319 355.147 339.013L355.515 339.401C357.831 341.84 359.746 344.63 361.188 347.668L361.849 349.06C363.097 351.688 364.065 354.441 364.737 357.273L366.084 362.945L366.87 368.463V424.396C366.87 428.297 366.526 432.191 365.842 436.032L365.455 438.203C364.829 441.724 363.803 445.162 362.397 448.45L361.767 449.925C360.46 452.984 358.731 455.846 356.631 458.426L355.791 459.458C354.277 461.318 352.514 462.96 350.552 464.337L350.29 464.521C348.257 465.948 346.015 467.052 343.643 467.792V467.792C341.327 468.515 338.915 468.882 336.488 468.882H322.616C319.655 468.882 316.716 468.381 313.923 467.401V467.401C310.487 466.195 307.339 464.286 304.68 461.798L304.357 461.495C302.553 459.806 300.977 457.888 299.67 455.791L298.832 454.446C297.043 451.575 295.621 448.491 294.6 445.266L294.166 443.894C293.386 441.429 292.791 438.908 292.387 436.354L292.227 435.345C291.691 431.96 291.422 428.538 291.422 425.11V373.657C291.422 369.468 291.824 365.289 292.623 361.178L293.003 359.218C293.52 356.559 294.281 353.953 295.278 351.434L295.892 349.882C297.097 346.837 298.75 343.99 300.798 341.435L301.526 340.526C303.677 337.841 306.324 335.595 309.324 333.911V333.911C311.525 332.675 313.889 331.755 316.347 331.18L317.841 330.83Z" fill="black"/>
<path d="M323.281 162.914C324.029 162.389 324.921 162.107 325.835 162.107H329.314C332.66 162.107 335.8 163.725 337.741 166.451L337.99 166.801C338.379 167.347 338.691 167.945 338.916 168.577V168.577C339.211 169.407 339.354 170.255 339.336 171.136C339.098 183.113 337.367 273.561 339.363 273.561C340.688 273.561 346.718 273.561 351.107 273.561C354.129 273.561 356.997 274.884 358.961 277.181L359.093 277.336C360.072 278.482 360.764 279.843 361.112 281.309V281.309C361.282 282.027 361.368 282.762 361.368 283.5V287.839C361.368 290.063 360.873 292.26 359.919 294.269L358.974 296.26C358.483 297.295 357.732 298.184 356.795 298.842V298.842C355.68 299.625 354.35 300.045 352.987 300.045H307.211C304.641 300.045 302.167 299.068 300.29 297.312V297.312C299.111 296.207 298.212 294.837 297.67 293.315L297.577 293.052C297.144 291.838 296.923 290.559 296.923 289.269V285.165C296.923 283.334 297.294 281.521 298.014 279.837L298.485 278.735C299.008 277.51 299.812 276.425 300.831 275.566V275.566C302.368 274.271 304.31 273.561 306.319 273.561C310.9 273.561 319.076 273.561 320.501 273.561C322.5 273.561 319.715 205.144 319.715 202.937C319.715 201.014 313.151 209.983 311.462 212.322C311.2 212.685 310.883 213 310.517 213.257V213.257C309.854 213.722 309.063 213.972 308.253 213.972H306.704C304.459 213.972 302.299 213.118 300.661 211.585L300.29 211.238C299.111 210.134 298.212 208.764 297.67 207.242L297.577 206.979C297.144 205.764 296.923 204.485 296.923 203.196V201.82C296.923 198.223 297.932 194.697 299.835 191.644L302.425 187.488L310.284 177.556L318.929 167.625L322.515 163.596C322.743 163.34 323 163.111 323.281 162.914V162.914Z" fill="black"/>
<path d="M434.036 330.406C434.832 330.033 435.7 329.84 436.579 329.84H439.344C440.779 329.84 442.189 330.209 443.439 330.911V330.911C444.762 331.655 445.858 332.744 446.61 334.062L447.041 334.82C448.065 336.617 448.586 338.605 448.551 340.673C448.255 358.051 446.905 442.398 448.605 442.398C449.763 442.398 455.374 442.398 459.564 442.398C462.586 442.398 465.454 443.721 467.417 446.018L467.55 446.173C468.528 447.318 469.22 448.68 469.568 450.145V450.145C469.739 450.863 469.825 451.599 469.825 452.337V455.735C469.825 458.562 469.063 461.337 467.62 463.768L466.292 466.007C466.03 466.447 465.678 466.827 465.259 467.122V467.122C464.65 467.549 463.924 467.779 463.18 467.779H417.635C414.347 467.779 411.223 466.339 409.086 463.839L408.524 463.181C408.004 462.573 407.6 461.875 407.332 461.121V461.121C407.08 460.415 406.952 459.671 406.952 458.922V454.442C406.952 451.614 407.713 448.839 409.156 446.408L410.485 444.17C410.746 443.729 411.098 443.349 411.517 443.055V443.055C412.126 442.627 412.849 442.398 413.593 442.398C417.36 442.398 429.244 442.398 430.529 442.398C432.058 442.398 429.743 373.98 429.743 370.67C429.743 368.351 425.888 374.152 423.578 377.837C422.468 379.607 420.78 380.946 418.785 381.568L418.59 381.629C416.207 382.373 413.614 381.968 411.571 380.534V380.534C410.599 379.852 409.791 378.963 409.203 377.932L408.655 376.97C407.539 375.011 406.952 372.795 406.952 370.54V369.206C406.952 365.835 407.897 362.533 409.679 359.672L412.453 355.221L424.242 340.875L432.054 331.901C432.603 331.27 433.278 330.76 434.036 330.406V330.406Z" fill="black"/>
<path d="M424.182 189.174C426.286 188.067 428.627 187.488 431.005 187.488H439.001C441.179 187.488 443.324 188.018 445.252 189.033V189.033C447.444 190.187 449.274 191.926 450.539 194.057L451.157 195.098C452.07 196.637 452.744 198.305 453.158 200.045L453.423 201.164C453.877 203.075 454.106 205.032 454.106 206.996V253.591C454.106 255.86 453.81 258.119 453.224 260.311L452.849 261.715C452.124 264.43 450.818 266.956 449.022 269.118L447.914 270.451C446.816 271.772 445.44 272.835 443.884 273.564V273.564C442.334 274.289 440.645 274.665 438.934 274.665H432.27C429.578 274.665 426.926 274.009 424.544 272.755L424.126 272.535C422.643 271.754 421.313 270.713 420.199 269.462V269.462C418.723 267.804 417.664 265.82 417.108 263.672L415.896 258.993C415.175 256.21 414.81 253.347 414.81 250.472V210.073C414.81 207.531 415.107 204.998 415.694 202.525L416.463 199.287C416.929 197.325 417.77 195.471 418.939 193.829L419.076 193.637C420.405 191.771 422.154 190.242 424.182 189.174V189.174Z" fill="white"/>
<path d="M320.666 356.818C321.597 356.491 322.577 356.324 323.564 356.324H332.548C334.95 356.324 337.306 356.979 339.364 358.217V358.217C340.918 359.152 342.264 360.397 343.316 361.875L343.925 362.731C345.068 364.335 345.943 366.113 346.518 367.996L347.123 369.978C347.712 371.906 348.111 373.887 348.315 375.892L348.794 380.601V415.928C348.794 418.855 348.536 421.777 348.022 424.66L347.002 430.393C346.628 432.494 345.878 434.51 344.789 436.344L344.239 437.272C343.102 439.188 341.507 440.792 339.598 441.941V441.941C337.891 442.969 335.977 443.605 333.994 443.803L329.477 444.256C327.184 444.486 324.868 444.251 322.669 443.565L322.3 443.45C320.081 442.757 318.048 441.573 316.351 439.985V439.985C314.939 438.663 313.787 437.087 312.958 435.339L312.427 434.221C311.527 432.325 310.903 430.311 310.575 428.238L310.053 424.937C309.684 422.603 309.498 420.244 309.498 417.882V381.944C309.498 379.581 309.684 377.222 310.053 374.889L310.575 371.588C310.903 369.515 311.527 367.5 312.427 365.605L312.9 364.609C313.768 362.78 314.972 361.132 316.45 359.749L317.585 358.686C318.471 357.856 319.521 357.22 320.666 356.818V356.818Z" fill="white"/>
</g>
<defs>
<clipPath id="clip0_9_40">
<rect width="620" height="620" fill="white"/>
</clipPath>
</defs>
</svg>
