<?xml version="1.0" encoding="UTF-8"?>
<svg version="1.1" viewBox="0 0 2000 2000" width="500" height="500" xmlns="http://www.w3.org/2000/svg">
<path transform="translate(210,655)" d="m0 0h201l32 1 15 2 19 7 14 9 9 9 7 10 5 11 4 18 1 10 1 28v28l-2 21-4 16-7 13-12 13-11 8-13 6v2l14 8 13 10 9 10 7 14 4 17 1 10 1 32v21l-1 20-3 22-6 18-7 13-12 13-14 8-18 6-19 3-27 1h-199l-2-1-1-4v-432zm123 100v72h59l1-1v-71zm18 158-18 1v79h60v-79l-1-1z" fill="#E4252A"/>
<path transform="translate(540,655)" d="m0 0h192l35 1 15 2 22 7 16 9 9 9 9 14 6 13 4 17 1 16v44l-1 23-3 15-4 10-7 12-12 12-19 13-1 2 5 2 12 7 10 9 7 8 8 14 3 11 1 9v158h-124v-173l-57 1-1 172h-126l-1-436zm126 100v76h58v-76z" fill="#E4252A"/>
<path transform="translate(1345,655)" d="m0 0h168l2 1v98l-138 1h-34v238h58v-72h-35l-1-1v-93l38-1h87l29 1 1 2v225l-1 38h-217l-18-2-19-6-16-8-10-9-9-12-6-12-4-17-2-25-1-22v-210l2-37 3-19 5-13 7-11 9-10 7-6 15-8 21-7 16-2z" fill="#E4252A"/>
<path transform="translate(943,655)" d="m0 0h188l3 8 5 24 19 101 8 38 15 79 9 44 15 80 7 34 6 27v2l-2 1h-134l-2-2-5-43-6-46-2-12-58-1-2 22-5 42-5 29-1 10-2 1h-127l-5-1v-8l4-15 9-53 11-60 5-24 6-34 13-72 6-31 13-72 5-25 7-41zm94 122-3 12-10 73-6 36v7h40v-9l-4-32-8-49-7-38z" fill="#E4252A"/>
<path transform="translate(1617,655)" d="m0 0h187l2 2 8 44 9 43 16 85 8 38 15 80 13 65 11 59 4 15v6l-10 1h-123l-2-1-5-25-1-16-6-40-1-12v-10h-60l-1 11-7 53-3 30-3 9-6 1h-124l-3-3 11-61 10-54 8-46 11-56 11-61 5-24 14-80 6-33 4-18zm93 123-2 9-9 55-8 58v4l20 1h18l4-1-1-10-5-24-7-48-6-42-1-2z" fill="#E4252A"/>
<path transform="translate(318,1156)" d="m0 0h14l14 2 18 6 16 8 14 10 11 11 10 14 8 16 6 21 3 17v12l-2 13-5 19-8 18-12 17-9 10-12 9-13 8-15 6-16 4h-34l-19-5-16-8-13-9-12-11-11-14-9-16-6-18-4-22v-13l4-25 6-18 10-17 11-12 8-8 13-9 19-9 17-5z" fill="#9A8789"/>
<path transform="translate(540,1173)" d="m0 0h50l2 7 10 46 10 43 4 15 6 27v2h2l4-21 8-32 10-43 8-36 2-8h50v185l-2 1h-34l-1-2-1-103-5 21-8 31-10 44-2 8-2 1h-37l-2-5-13-58-7-26-5-18v105l-3 2h-34l-1-2v-183z" fill="#312F32"/>
<path transform="translate(770,1170)" d="m0 0h21l14 3 14 7 9 9 6 12 2 9 1 28v52l-1 29-3 14-5 10-7 8-8 5-16 5-12 1h-14l-13-2-12-5-8-6-6-7-6-12-2-9-1-11v-48l1-49 2-10 7-14 8-9 14-7zm6 32-10 5-4 6v104l3 7 4 3 8 2 12-1 6-4 3-7v-104l-7-8-7-3z" fill="#302E31"/>
<path transform="translate(1e3 1170)" d="m0 0h20l18 4 11 6 7 8 6 12 3 14v105l-4 16-6 11-8 7-13 6-8 2-11 1h-15l-13-2-13-5-8-6-6-9-4-9-3-15-1-10v-72l1-17 4-18 5-10 9-10 12-6zm7 32-9 3-7 8-1 49v42l1 14 4 7 6 3 10 1 10-2 5-6 1-6v-103l-4-5-7-4z" fill="#302E31"/>
<path transform="translate(1122,1170)" d="m0 0h22l26 4 1 1-1 11-3 21-3 1-10-4-13-1h-10l-7 3-5 6-2 10 1 10 3 5 12 6 21 9 11 7 7 8 4 10 2 13v23l-2 14-5 13-4 6-8 7-8 4-13 4-19 1-18-1-16-3-3-1-1-4 2-10 2-19 22 4h19l7-3 3-1 3-10v-17l-3-5-5-4-25-9-11-6-8-7-5-9-3-11v-37l4-14 5-9 8-8 8-4z" fill="#302E31"/>
<path transform="translate(312,1163)" d="m0 0 8 1 2 2 5-1h10l12 2 12 6 2 4v3l-5 1-7-2-11-2h-11l2 15v14l3 8 3 6 3 15h5l20-11 8-1-2 3h-2l-2 4-16 10-8 6-3 3v7l4 4h6l7-3h5l-1 4-2 3 1 11-3 1-9-3-5 2-3 3v6l3 4v2l4 1 4 4-4 1-10 1h-3l-3-6v-3l-10-1-5 4-2 12-1 3-4-2-2-5-3-1-8 2-20 1-5 2-7 6-5 1-5-1-1-3 1-4 9-6 8-4h2l3-9 6-10 6-7-4-4-14-8-12-8-2-2v-6l4-2 7 2 1 2 3-1 5 5 3 1 1 2 5 3 9 6 4 2h7l1-9-10-7-19-11-10-6-4-2-1-2v-6l7-10 5-5h2v-2l12-6 11-3h15l3-5 1-7-6 1-13 4-12 5-18 10-9 8-11 15-8 16-4 15-2 17-2 4h-5l-2-2-1-17 1-10 3-16 8-16 7-10 8-10 4-2v-2l10-8 3-1 1-2 13-6 17-5z" fill="#FDFDFD"/>
<path transform="translate(842,1173)" d="m0 0h105l1 1v32l-1 1h-32v150l-4 2h-35l-1-1v-151h-33z" fill="#312F32"/>
<path transform="translate(320,1289)" d="m0 0h8l2 3 1 6 1 27 1 9h2l2-10 2-21 2-3 18 2h11l6 2 2 3 7 3 10 2 2 2-1 6-3 1v3l-8 7-11 10-13 8-15 6-9 2h-23l-12-2-12-4-9-4-5-3v-2l-5-2-10-9-8-10-1-6 4-2 9-2 9-7 3-1h14l14-3 2 3 2 25 2 8h2l2-24 1-19z" fill="#AB1D25"/>
<path transform="translate(331,1179)" d="m0 0 10 1 17 6 16 8 9 6 7 7v2h2l9 13 5 11 5 17 1 10v12l-3 20-5 10-3 3-7-2-5-4-9-5-5-5-6-12-7-7-2-4 5-5 11-8 11-7 4-2-1-4-8 1-8 4-11 6-12 7-6 1-5-6 1-4 7-6 19-12 13-9 1-5-8 1-14 7-10 7-5 1-2-1-4-16-4-11-1-15-2-7z" fill="#AB1D25"/>
<path transform="translate(318,1156)" d="m0 0h14l14 2 18 6 16 8 14 10 11 11 10 14 8 16 6 21 3 17v12l-2 13-5 19-8 18-12 17-9 10-12 9-13 8-15 6-16 4h-34l-19-5-16-8-13-9-12-11-11-14-9-16-6-18-4-22v-13l4-25 6-18 6-10h2l-3 10-2 2-5 15-2 10-1 10v21l3 19 4 10 9 14 3 5v4h2l4 6v2l4 2 3 3v2l4 1 4 5 9 6 5 3v2l5 1 3 1v2l9 2 8 3 10 2 16 1h12l12-3 12-4 10-6 9-5 10-7h2l2-4 9-11 9-13 5-11 5-16 1-8 1-25-2-14-6-18-10-18-8-11-7-9v-2l-4-2-4-3v-2l-4-1v-2l-4-2-10-6-6-2-4-2-19-3-3-1h-32l2-3z" fill="#433235"/>
<path transform="translate(249,1224)" d="m0 0 1 4-1 4v9l10 8 19 11 6 4v4h-2l-1 3h-2l-2 5-7 14-3 2-9 2-6 5-5 5-3-1-4-11-2-12v-19l2-15 4-12z" fill="#E42429"/>
<path transform="translate(332,1183)" d="m0 0 7 1 11 3 15 6 7 4 5 9 3 3v7l-14 5-16 10-6 2-2-1-4-16-4-11-1-15z" fill="#E5252A"/>
<path transform="translate(318,1156)" d="m0 0h14l14 2 18 6 16 8 14 10 11 11 10 14 8 16 1 5h-2l3 13 2 15v19l-1 12-2 3 1-31-2-14-6-18-10-18-8-11-7-9v-2l-4-2-4-3v-2l-4-1v-2l-4-2-10-6-6-2-4-2-19-3-3-1h-32l2-3z" fill="#A9232B"/>
<path transform="translate(371,1228)" d="m0 0 4 1-4 4-3 7 10-3 2-1h7l-3 3h-2v2l-8 4-11 6-12 7-6 1-5-6 1-4 7-6 19-12z" fill="#E32429"/>
<path transform="translate(295,1274)" d="m0 0h8l5 4v7l-5 6-3 2-9 2-5-2-3-3v-7l1-3 8-5z" fill="#AB1D25"/>
<path transform="translate(321,1221)" d="m0 0h6l4 3v9l-2 9-3 3-6-1-3-4-1-7 1-8z" fill="#9A8789"/>
<path transform="translate(232,1208)" d="m0 0h2l-3 10-2 2-5 15-2 10-1 10v21l3 19 4 10 9 14 3 5v4h2l1 3h-3l-1-5h-2l-9-16-5-9-4-21-1-23-1-4 4-21 6-16z" fill="#A82B32"/>
<path transform="translate(348,1274)" d="m0 0 9 4 6 5-1 7-3 2-7-1-9-6-2-3 1-5z" fill="#AB1D25"/>
<path transform="translate(321,1259)" d="m0 0 7 1 4 5-2 5-3 5h-6l-6-7 1-6z" fill="#A82A32"/>
<path transform="translate(295,1274)" d="m0 0h8l5 4v7l-5 6-3 2-9 2-5-2-3-3v-7l1-3 8-5zm0 2-7 4-4 5 1 4 5 3 9-3 6-5 1-5-3-3z" fill="#9A8789"/>
<path transform="translate(219,1258)" d="m0 0h1l2 27 3 12 5 12 7 10 3 5v4h2l1 3h-3l-1-5h-2l-9-16-5-9-4-21z" fill="#AB1D25"/>
<path transform="translate(239,1251)" d="m0 0h1l1 34 5 13 5 2-4 4-3-1-4-11-2-12v-19z" fill="#AB1D25"/>
<path transform="translate(371,1228)" d="m0 0 2 1-13 10v3l-5 3h-2l-1 2-3 1-1 2-3-1-1-3 9-6 14-9z" fill="#AC1D25"/>
<path transform="translate(249,1224)" d="m0 0 1 4-1 4v7l-4 2-4 5 1-7 6-14z" fill="#AA2028"/>
<path transform="translate(246,1336)" d="m0 0 4 2 3 3v2l4 1 4 5 9 6 5 3-1 2-13-8-5-4v-2h-2v-2l-4-2v-2h-2z" fill="#AB1D25"/>
<path transform="translate(217,1256)" d="m0 0 2 1v23h-2l-1-6v-13z" fill="#393638"/>
<path transform="translate(321,1259)" d="m0 0 7 1 4 5-2 5-1-3-1-4-1-1h-7l-2 1v8l-3-3 1-6z" fill="#9A8789"/>
<path transform="translate(297,1283)" d="m0 0 1 3-4 5-4 1-4-2 1-3 7-1z" fill="#DF2429"/>
</svg>
