<svg width="197" height="158" viewBox="0 0 197 158" fill="none" xmlns="http://www.w3.org/2000/svg">
<path fill-rule="evenodd" clip-rule="evenodd" d="M180.647 0C181.886 0 183.117 0.209668 184.286 0.620129C185.359 0.996629 186.366 1.5373 187.273 2.22285L187.922 2.71362C189.018 3.54185 190.003 4.50602 190.855 5.58294L191.182 5.9955C191.987 7.01343 192.694 8.10621 193.291 9.25885L193.528 9.71637C194.274 11.1576 194.882 12.6662 195.344 14.2222L196.06 16.6362C196.436 19.0092 196.624 21.4079 196.624 23.8104V135.356C196.624 137.011 196.479 138.662 196.189 140.291L196.15 140.506C195.903 141.897 195.54 143.265 195.066 144.596C194.414 146.426 193.556 148.175 192.508 149.81L191.547 151.31L191.172 151.761C190.11 153.039 188.883 154.171 187.523 155.125L186.713 155.694C185.989 156.202 185.205 156.62 184.378 156.936C183.149 157.407 181.845 157.648 180.529 157.648H129.202L129.202 157.65H121.303L121.303 157.648H73.0452C71.1973 157.648 69.3694 157.265 67.6771 156.522C66.3868 155.956 65.1942 155.189 64.1435 154.25L63.7171 153.869C62.9913 153.221 62.3227 152.511 61.7187 151.748L61.3462 151.277C60.3217 149.982 59.4341 148.585 58.6975 147.108L58.6577 147.028C58.1071 145.923 57.6398 144.779 57.2597 143.605L56.4202 141.012L55.5331 136.652C55.3728 135.865 55.1174 135.099 54.7726 134.373L54.6654 134.147C54.3324 133.446 53.9013 132.795 53.385 132.215L53.0041 131.788C52.8372 131.6 52.649 131.432 52.4435 131.288C51.9098 130.913 51.2758 130.708 50.6238 130.698L27.0805 130.339C26.1621 130.324 25.2692 130.035 24.5175 129.507C23.7973 129.001 23.2379 128.299 22.9062 127.484L22.7367 127.068C22.439 126.336 22.2859 125.554 22.2859 124.764V124.078C22.2859 123.228 22.4506 122.386 22.7708 121.6L23.0089 121.015C23.2748 120.361 23.7031 119.787 24.2532 119.345C24.9884 118.755 25.9027 118.434 26.8452 118.434H49.4882C50.7154 118.434 51.9339 118.642 53.0919 119.048C54.1755 119.429 55.1921 119.978 56.1038 120.676L56.4693 120.956C57.3734 121.649 58.1881 122.451 58.8947 123.344L59.2524 123.796C60.1818 124.97 60.9643 126.254 61.5825 127.618L61.7564 128.001C62.335 129.278 62.7894 130.608 63.1132 131.971L63.7548 134.674L64.3021 137.492C64.5008 138.515 64.815 139.512 65.2388 140.464L65.4474 140.932C65.8217 141.774 66.3099 142.559 66.8983 143.267L67.1659 143.589C67.709 144.243 68.3582 144.8 69.0863 145.239L69.3402 145.391C69.7522 145.639 70.1956 145.831 70.6586 145.961C71.1316 146.094 71.6207 146.161 72.112 146.161H179.485C180.557 146.161 181.618 145.947 182.606 145.531C183.482 145.162 184.285 144.64 184.979 143.991L185.161 143.82C186.025 143.011 186.729 142.047 187.237 140.978L187.5 140.425C187.939 139.499 188.265 138.52 188.47 137.516C188.64 136.682 188.726 135.83 188.726 134.978V23.9127C188.726 22.7613 188.615 21.6126 188.396 20.4823L188.206 19.5047C187.989 18.3908 187.608 17.3157 187.073 16.3148L186.954 16.093C186.446 15.1413 185.785 14.2795 184.997 13.5422L184.413 12.9956C183.907 12.5221 183.318 12.1467 182.675 11.8887C182.013 11.6233 181.307 11.4869 180.594 11.4869H72.8751C71.8827 11.4869 70.9004 11.6854 69.9859 12.0706C69.0392 12.4694 68.1854 13.0597 67.478 13.8046L67.2697 14.024C66.6231 14.7049 66.0885 15.484 65.6858 16.3322L65.4047 16.9242C64.8717 18.0467 64.5025 19.2399 64.3082 20.4673L64.0369 22.1816L63.8317 29.3855C63.7806 31.1789 63.5232 32.9785 63.0734 34.7153C62.7778 35.8566 62.3938 36.9856 61.9305 38.0697L61.5494 38.9616C61.1402 39.9192 60.6291 40.8301 60.0249 41.6783C59.3172 42.6721 58.4869 43.5727 57.5539 44.3587L57.4779 44.4228C56.5876 45.1728 55.6146 45.8188 54.5777 46.3482L53.5821 46.8566C53.2182 47.0424 52.8368 47.1916 52.4434 47.302C51.9 47.4547 51.3382 47.532 50.7738 47.532H29.5696C28.507 47.532 27.4762 47.1696 26.6475 46.5047C26.1888 46.1366 25.8037 45.6852 25.5126 45.1742L25.4332 45.035C25.0325 44.3317 24.7917 43.5488 24.7279 42.7419L24.6669 41.9721C24.585 40.9372 24.7227 39.8967 25.071 38.9187L25.3706 38.0774C25.5681 37.5228 25.8954 37.0235 26.3252 36.6212C26.9936 35.9955 27.8707 35.6407 28.7861 35.6255L50.1749 35.2722C50.9424 35.2595 51.6962 35.0666 52.3754 34.709C53.1756 34.2876 53.8434 33.653 54.305 32.8753L54.6806 32.2425C54.8994 31.8737 55.0821 31.4846 55.226 31.0806C55.4565 30.4332 55.5852 29.754 55.6074 29.0671L55.7669 24.141C55.8262 22.309 56.0172 20.4836 56.3385 18.679L56.5669 17.3962C56.8447 15.836 57.2515 14.3015 57.7832 12.8085L57.9923 12.2213C58.4478 10.9423 59.021 9.70827 59.7045 8.5352L59.8979 8.20336C60.7725 6.70245 61.8474 5.32763 63.093 4.1168L63.4931 3.72783C64.4159 2.83081 65.4514 2.0575 66.5734 1.4273L66.9978 1.18894C67.4678 0.92495 67.96 0.702413 68.4687 0.523857C69.4564 0.177118 70.4958 0 71.5426 0H180.647Z" fill="black"/>
<path d="M1.67773 64.0501C2.4123 63.3625 3.38085 62.9799 4.38703 62.9799H56.3842C57.5284 62.9799 58.6643 63.1735 59.744 63.5525C60.9037 63.9596 61.9798 64.5741 62.9198 65.366L63.1666 65.5739C63.9319 66.2186 64.6128 66.9573 65.1933 67.7723L65.6623 68.4308C66.6427 69.8075 67.4277 71.3135 67.9947 72.9057L68.5913 74.5811C68.9397 75.5595 69.2063 76.5652 69.3884 77.5877C69.5817 78.6738 69.679 79.7749 69.679 80.8781V82.7404C69.679 84.6131 69.4768 86.4803 69.0759 88.3096L68.9806 88.7446C68.6946 90.05 68.2863 91.3255 67.7612 92.5543L67.7374 92.6099C67.1528 93.978 66.4227 95.2792 65.5597 96.491L64.98 97.3049C64.3538 98.1841 63.6193 98.9809 62.7938 99.6763L62.6939 99.7605C61.7149 100.585 60.6105 101.248 59.4224 101.725C57.9983 102.296 56.4781 102.59 54.9437 102.59H12.5445C11.7305 102.59 10.9426 102.302 10.3201 101.778C10.0245 101.529 9.77281 101.232 9.57554 100.9L9.12772 100.145C8.68946 99.4066 8.41074 98.5845 8.30953 97.7318C8.22446 97.0152 8.26623 96.2892 8.43292 95.587L8.73266 94.3244C8.92602 93.51 9.31863 92.7563 9.87525 92.131L10.0135 91.9758C10.2944 91.6602 10.6258 91.3936 10.9941 91.1867C11.5544 90.872 12.1852 90.704 12.8279 90.6984L55.4004 90.3272C56.6158 90.3166 57.7992 89.9369 58.7939 89.2386C59.6419 88.6433 60.3211 87.8384 60.7655 86.9025L60.9677 86.4767C61.1327 86.129 61.2608 85.765 61.3497 85.3905C61.4483 84.9752 61.4981 84.5499 61.4981 84.123V82.0283C61.4981 80.9603 61.2736 79.9042 60.8393 78.9284L60.6915 78.5963C60.2946 77.7047 59.6904 76.9209 58.9292 76.3102L58.5852 76.0341C58.2726 75.7833 57.9197 75.5873 57.5415 75.4546C57.1727 75.3251 56.785 75.2576 56.3941 75.2547L4.69591 74.8747C3.66429 74.8671 2.66539 74.5118 1.86073 73.8661C1.37753 73.4784 0.97792 72.9968 0.68604 72.4504L0.584281 72.2599C0.383665 71.8843 0.23231 71.4844 0.133958 71.0701C0.0449566 70.6952 0 70.3112 0 69.9259V68.369C0 67.4288 0.20923 66.5003 0.61252 65.6509L0.805679 65.2441C1.01893 64.7949 1.31475 64.3899 1.67773 64.0501Z" fill="black"/>
<path d="M103.119 23.6595C103.387 23.4711 103.707 23.3699 104.035 23.3699H105.284C106.485 23.3699 107.612 23.9508 108.309 24.9292L108.398 25.0547C108.538 25.2509 108.65 25.4655 108.731 25.6924C108.837 25.9901 108.888 26.2948 108.882 26.6107C108.796 30.9101 108.175 63.3761 108.891 63.3761C109.367 63.3761 111.531 63.3761 113.107 63.3761C114.191 63.3761 115.221 63.8508 115.926 64.6754L115.973 64.7312C116.325 65.1422 116.573 65.6309 116.698 66.157C116.759 66.4147 116.79 66.6786 116.79 66.9435V68.5011C116.79 69.2994 116.612 70.0878 116.27 70.8091L115.93 71.5238C115.754 71.8951 115.485 72.2144 115.148 72.4505C114.748 72.7316 114.271 72.8825 113.781 72.8825H97.3503C96.4277 72.8825 95.5396 72.5317 94.866 71.9011C94.4427 71.5048 94.1203 71.013 93.9257 70.4667L93.8921 70.3723C93.7369 69.9364 93.6576 69.4772 93.6576 69.0145V67.5413C93.6576 66.8838 93.7908 66.2332 94.0491 65.6286L94.218 65.2332C94.406 64.7934 94.6944 64.4038 95.0602 64.0957C95.6118 63.6309 96.3088 63.3761 97.0302 63.3761C98.6743 63.3761 101.609 63.3761 102.121 63.3761C102.838 63.3761 101.838 38.8178 101.838 38.0256C101.838 37.3353 99.4824 40.5547 98.8762 41.3944C98.7823 41.5246 98.6682 41.6377 98.5368 41.7299C98.2989 41.897 98.0152 41.9866 97.7244 41.9866H97.1682C96.3626 41.9866 95.5871 41.6803 94.999 41.1298L94.866 41.0053C94.4427 40.609 94.1203 40.1172 93.9257 39.5709L93.8921 39.4765C93.7369 39.0406 93.6576 38.5813 93.6576 38.1186V37.6248C93.6576 36.3335 94.0196 35.0681 94.7025 33.9722L95.6323 32.4802L98.4533 28.9153L101.556 25.3504L102.844 23.9044C102.926 23.8125 103.018 23.7303 103.119 23.6595Z" fill="black"/>
<path d="M142.874 83.7802C143.159 83.6465 143.471 83.5772 143.786 83.5772H144.779C145.294 83.5772 145.8 83.7096 146.249 83.9617C146.724 84.2284 147.117 84.6194 147.387 85.0928L147.542 85.3647C147.909 86.0095 148.096 86.7235 148.084 87.4656C147.977 93.7033 147.493 123.979 148.103 123.979C148.519 123.979 150.533 123.979 152.037 123.979C153.122 123.979 154.151 124.454 154.856 125.279L154.903 125.335C155.255 125.746 155.503 126.234 155.628 126.76C155.689 127.018 155.72 127.282 155.72 127.547V128.767C155.72 129.781 155.447 130.778 154.929 131.65L154.452 132.454C154.358 132.612 154.232 132.748 154.081 132.854C153.863 133.007 153.602 133.09 153.335 133.09H136.987C135.806 133.09 134.685 132.573 133.918 131.676L133.716 131.439C133.53 131.221 133.385 130.971 133.288 130.7C133.198 130.447 133.152 130.18 133.152 129.911V128.302C133.152 127.288 133.425 126.292 133.943 125.419L134.42 124.615C134.514 124.457 134.64 124.321 134.791 124.215C135.009 124.062 135.269 123.979 135.536 123.979C136.888 123.979 141.154 123.979 141.615 123.979C142.164 123.979 141.333 99.4212 141.333 98.2329C141.333 97.4006 139.949 99.4829 139.12 100.805C138.721 101.441 138.116 101.921 137.399 102.145L137.329 102.167C136.474 102.434 135.543 102.288 134.81 101.773C134.461 101.529 134.171 101.21 133.96 100.84L133.763 100.494C133.363 99.791 133.152 98.9956 133.152 98.1863V97.7073C133.152 96.4976 133.491 95.312 134.131 94.2853L135.127 92.6875L139.358 87.5382L142.162 84.3168C142.359 84.0903 142.602 83.9075 142.874 83.7802Z" fill="black"/>
<path fill-rule="evenodd" clip-rule="evenodd" d="M137.91 23.618C138.497 23.4534 139.103 23.3699 139.712 23.3699H145.802C146.95 23.3699 148.089 23.5805 149.161 23.9912C150.142 24.3666 151.052 24.9035 151.855 25.5798L152.078 25.7682C152.996 26.5409 153.782 27.4567 154.407 28.4803L154.433 28.5231C154.913 29.3098 155.296 30.1517 155.575 31.0305L155.827 31.8274C156.131 32.7891 156.356 33.7743 156.498 34.773L156.848 37.2334V56.1358C156.848 57.7906 156.702 59.4422 156.412 61.0714L156.246 62.0071C156.084 62.9182 155.846 63.8142 155.536 64.686L155.224 65.5612C154.805 66.7369 154.193 67.8343 153.413 68.8082L153.258 69.0011C152.462 69.995 151.482 70.8264 150.371 71.4501C149.615 71.875 148.806 72.199 147.965 72.4136L147.644 72.4956C146.638 72.7525 145.603 72.8825 144.565 72.8825H141.89C140.585 72.8825 139.287 72.6914 138.038 72.3155L137.508 72.156C136.491 71.8501 135.53 71.3832 134.661 70.7731L134.468 70.6376C133.968 70.2869 133.511 69.8795 133.105 69.4237C132.575 68.8282 132.138 68.156 131.809 67.4299L131.151 65.9768C130.606 64.7746 130.192 63.5172 129.916 62.2265L129.485 60.2073L129.202 57.4345V38.4217L129.531 35.6541C129.688 34.3333 129.969 33.0303 130.37 31.7622L130.596 31.049C130.795 30.4198 131.045 29.808 131.345 29.2198L131.477 28.9598C132.025 27.8821 132.757 26.9083 133.64 26.082C134.438 25.3349 135.349 24.7183 136.339 24.2548L136.888 23.9981C137.218 23.8436 137.56 23.7165 137.91 23.618ZM150.063 56.7335C150.313 54.2625 150.305 51.2649 150.273 47.8896C150.262 46.687 150.267 45.5445 150.272 44.4648C150.308 36.2803 150.328 31.7126 143.173 32.0396C135.359 31.7754 135.425 39.0727 135.489 46.0924C135.495 46.7325 135.5 47.3704 135.5 48C135.5 48.3796 135.499 48.7638 135.497 49.151C135.472 56.4489 135.444 64.8311 143.173 64C147.52 64.6126 149.242 62.2897 149.901 58.0165C149.985 57.5931 150.039 57.1644 150.063 56.7335Z" fill="black"/>
<path fill-rule="evenodd" clip-rule="evenodd" d="M101.166 83.9326C102.175 83.6964 103.208 83.5772 104.245 83.5772H106.055C107.003 83.5772 107.948 83.6781 108.874 83.8781L109.458 84.0042C110.576 84.2458 111.644 84.6791 112.615 85.2849C113.327 85.729 113.979 86.2616 114.557 86.8699L114.689 87.009C115.52 87.8844 116.207 88.886 116.725 89.9765L116.962 90.476C117.41 91.4196 117.758 92.4077 117.999 93.424L118.483 95.4602L118.765 97.4407V117.518C118.765 118.918 118.641 120.316 118.396 121.694L118.257 122.474C118.032 123.737 117.664 124.971 117.159 126.152L116.933 126.681C116.464 127.779 115.843 128.806 115.089 129.733L114.788 130.103C114.244 130.771 113.612 131.36 112.907 131.855L112.813 131.92C112.084 132.433 111.279 132.829 110.427 133.094C109.596 133.354 108.73 133.486 107.859 133.486H102.88C101.817 133.486 100.762 133.306 99.7595 132.954C98.5261 132.521 97.3963 131.836 96.4419 130.943L96.3258 130.834C95.6782 130.228 95.1126 129.54 94.6435 128.787L94.3426 128.304C93.7004 127.273 93.1901 126.166 92.8237 125.009L92.6679 124.516C92.3877 123.632 92.1742 122.727 92.0291 121.81L91.9718 121.448C91.7795 120.233 91.6829 119.004 91.6829 117.774V99.3049C91.6829 97.8015 91.8272 96.3016 92.1139 94.8257L92.2505 94.1223C92.4359 93.1678 92.7092 92.2325 93.067 91.3284L93.2874 90.7711C93.7198 89.6782 94.3133 88.6562 95.0482 87.739L95.3096 87.4128C96.0817 86.4491 97.032 85.643 98.1087 85.0383C98.8987 84.5946 99.7474 84.2646 100.63 84.0581L101.166 83.9326ZM112.271 114.908C112.357 113.09 112.364 111.061 112.35 108.854C112.344 107.904 112.345 106.992 112.346 106.119C112.354 97.4236 112.359 92.6274 105.25 93.0038C97.957 92.4189 98.0369 98.3937 98.1319 105.503C98.1466 106.599 98.1616 107.723 98.15 108.854C98.1424 109.589 98.1286 110.318 98.115 111.037C97.9718 118.597 97.8501 125.022 105.25 124.704C110.221 125.46 111.759 122.142 112.196 116.169C112.236 115.749 112.261 115.329 112.271 114.908Z" fill="black"/>
</svg>
