<svg width="188" height="168" viewBox="0 0 188 168" fill="none" xmlns="http://www.w3.org/2000/svg">
<path d="M46.9427 115.755C35.8598 115.755 25.3 111.041 17.9008 102.79L17.2748 102.075C4.34487 86.9408 4.873 64.4125 18.6429 49.8979L40.2972 27.0737C53.9702 12.6618 72.9636 4.50046 92.8295 4.50046H155.581C160.917 4.50067 165.242 8.82537 165.242 14.1606C165.242 19.4958 160.917 23.8206 155.581 23.8208H89.0238C74.1741 23.8209 60.0365 30.1859 50.1918 41.3032L32.2797 61.5317C24.9575 69.8006 25.0225 82.2522 32.431 90.4438C36.5409 94.9881 42.3821 97.5815 48.5092 97.5815H110.283C115.301 97.5815 119.37 101.65 119.37 106.668C119.37 111.687 115.301 115.755 110.283 115.755H46.9427Z" fill="#9400D3" stroke="#9400D3" stroke-width="9"/>
<path d="M140.557 52.0917C151.64 52.0918 162.2 56.8063 169.599 65.0576L170.225 65.7724C183.155 80.9063 182.627 103.435 168.857 117.949L147.203 140.773C133.53 155.185 114.536 163.347 94.6705 163.347H31.9186C26.5834 163.346 22.2584 159.022 22.2584 153.686C22.2584 148.351 26.5834 144.027 31.9186 144.026H98.4762C113.326 144.026 127.463 137.661 137.308 126.544L155.22 106.315C162.542 98.0465 162.477 85.5949 155.069 77.4033C150.959 72.859 145.118 70.2656 138.991 70.2656H77.2174C72.1987 70.2656 68.1295 66.1973 68.1295 61.1786C68.1296 56.1601 72.1988 52.0917 77.2174 52.0917H140.557Z" fill="#9400D3" stroke="#9400D3" stroke-width="9"/>
</svg>
