<svg width="1518" height="411" viewBox="0 0 1518 411" fill="none" xmlns="http://www.w3.org/2000/svg">
<path d="M725.27 99.7901C727.479 98.6853 729.916 98.1102 732.386 98.1102H735.539C739.298 98.1102 742.973 99.2228 746.101 101.308V101.308C749.174 103.357 751.585 106.255 753.04 109.65L753.622 111.008C754.902 113.996 755.563 117.214 755.563 120.466V237.803C755.563 242.894 755.174 247.977 754.4 253.009L753.904 256.23C752.901 262.756 751.199 269.154 748.829 275.316L748.719 275.602C745.9 282.931 742.134 289.859 737.515 296.209L736.845 297.131C733.49 301.744 729.648 305.981 725.386 309.77V309.77C720.178 314.399 714.383 318.323 708.15 321.439L706.79 322.119C701.298 324.865 695.458 327.018 689.501 328.507V328.507C682.917 330.153 676.085 331.003 669.298 331.003V331.003C663.452 331.003 657.622 330.386 651.906 329.161L648.958 328.529C641.906 327.018 635.109 324.496 628.777 321.043V321.043C623.542 318.187 618.667 314.717 614.255 310.706L612.475 309.088C606.498 303.654 601.272 297.448 596.936 290.634V290.634C593.905 285.871 591.324 280.836 589.228 275.594L587.486 271.24C586.525 268.839 585.787 266.355 585.28 263.82V263.82C584.733 261.086 584.458 258.305 584.458 255.518V243.108C584.458 235.208 585.639 227.353 587.962 219.803V219.803C589.844 213.687 592.459 207.822 595.751 202.336L600.301 194.753V194.753C604.507 189.495 609.397 184.825 614.842 180.865L616.571 179.607C621.555 175.983 626.892 172.872 632.502 170.322L636.435 168.534C639.8 167.005 643.297 165.784 646.882 164.888V164.888C651.721 163.678 656.689 163.067 661.676 163.067H677.507C681.938 163.067 686.293 164.223 690.14 166.422L693.186 168.162C694.615 168.979 695.835 170.117 696.747 171.486V171.486C697.908 173.228 698.528 175.274 698.528 177.367V185.247C698.528 188.357 697.683 191.409 696.082 194.076V194.076C694.57 196.597 692.434 198.688 689.881 200.146L687.905 201.276C684.471 203.238 680.632 204.387 676.684 204.634L664.406 205.401C659.73 205.693 655.144 206.817 650.863 208.72V208.72C645.732 211 641.147 214.351 637.417 218.548L634.12 222.256C631.668 225.016 629.801 228.245 628.633 231.748V231.748C627.707 234.528 627.234 237.439 627.234 240.369V246.538C627.234 253.116 628.766 259.604 631.708 265.488L631.913 265.899C635.076 272.225 639.835 277.616 645.72 281.539L645.94 281.686C649.292 283.921 652.971 285.622 656.844 286.728V286.728C660.324 287.722 663.925 288.227 667.543 288.227H668.759C674.819 288.227 680.822 287.071 686.448 284.82L688.824 283.87C692.104 282.558 695.157 280.738 697.872 278.476V278.476C701.439 275.503 704.353 271.824 706.43 267.67L708.352 263.826C710.242 260.047 711.556 256.006 712.25 251.838V251.838C712.607 249.695 712.799 247.528 712.824 245.356L714.281 118.575C714.339 113.536 716.132 108.671 719.358 104.8L720.162 103.836C721.567 102.149 723.306 100.772 725.27 99.7901V99.7901Z" fill="#9400D3"/>
<path d="M1296.06 162.232C1299.06 161.733 1302.09 161.482 1305.13 161.482H1307.63C1314.51 161.482 1321.37 162.326 1328.04 163.995L1330.66 164.651C1334.88 165.704 1338.96 167.215 1342.85 169.157L1343.37 169.42C1347.56 171.513 1351.46 174.133 1354.98 177.215V177.215C1359.86 181.48 1363.94 186.573 1367.04 192.258L1370.26 198.168C1371.32 200.108 1372.13 202.175 1372.66 204.319V204.319C1373.18 206.383 1373.44 208.503 1373.44 210.631V217.333C1373.44 223.337 1372.18 229.274 1369.74 234.76V234.76C1367.99 238.696 1365.66 242.346 1362.83 245.588L1357.98 251.124C1356.67 252.619 1355.23 253.986 1353.66 255.206L1353.44 255.377C1350.43 257.715 1347 259.455 1343.34 260.502V260.502L1343.16 260.562C1340.12 261.576 1337 262.351 1333.83 262.878V262.878L1308.79 264.196C1305.45 264.372 1302.12 263.857 1298.99 262.684L1295.88 261.518C1292.76 260.347 1290.12 258.153 1288.41 255.293V255.293C1287.03 252.999 1286.31 250.375 1286.31 247.7V246.489C1286.31 242.713 1287.42 239.021 1289.52 235.879L1290.2 234.852C1291.81 232.442 1293.93 230.419 1296.41 228.928V228.928C1299.14 227.293 1302.22 226.347 1305.4 226.171L1325.96 225.028C1327.93 224.919 1329.72 223.892 1330.81 222.255V222.255C1331.73 220.876 1332.07 219.189 1331.74 217.564L1331.33 215.525C1330.9 213.344 1329.83 211.341 1328.25 209.768L1328.18 209.698C1326.7 208.212 1324.84 207.158 1322.8 206.648L1318.13 205.481C1314.89 204.672 1311.54 204.428 1308.22 204.76L1304.21 205.161C1299.71 205.612 1295.32 206.881 1291.27 208.907V208.907C1286.94 211.068 1283.08 214.051 1279.9 217.689L1278.1 219.752C1275.14 223.126 1272.82 227.005 1271.25 231.203V231.203C1269.68 235.386 1268.88 239.817 1268.88 244.285V249.313C1268.88 255.108 1270.23 260.824 1272.82 266.007V266.007C1276.43 273.231 1282.29 279.089 1289.51 282.702L1294.46 285.177C1296.41 286.151 1298.46 286.909 1300.57 287.437V287.437C1302.67 287.962 1304.82 288.257 1306.99 288.317L1354.83 289.646C1358.71 289.754 1362.48 290.953 1365.71 293.106V293.106C1368.7 295.1 1371.12 297.839 1372.73 301.053L1373.16 301.929C1374.39 304.379 1375.03 307.08 1375.03 309.819V309.819C1375.03 313.302 1374 316.706 1372.06 319.604L1370.71 321.641C1369.37 323.643 1367.71 325.404 1365.78 326.847L1365.6 326.984C1363.46 328.591 1361.01 329.753 1358.41 330.403V330.403C1356.82 330.802 1355.18 331.003 1353.54 331.003H1310.57C1306.02 331.003 1301.48 330.627 1296.98 329.878V329.878C1288.85 328.523 1280.97 325.961 1273.6 322.275L1273.15 322.051C1266.11 318.53 1259.59 314.059 1253.76 308.763L1253.08 308.141C1247.79 303.336 1243.17 297.848 1239.33 291.821V291.821C1235.81 286.277 1232.97 280.322 1230.89 274.088L1229.67 270.406C1228.35 266.451 1227.39 262.387 1226.8 258.26V258.26C1226.33 255.006 1226.1 251.722 1226.1 248.434V247.647C1226.1 241.974 1226.7 236.316 1227.89 230.769L1228.72 226.894C1230.14 220.28 1232.39 213.872 1235.41 207.822V207.822C1238.69 201.253 1242.87 195.166 1247.81 189.731L1248.56 188.906C1253.63 183.323 1259.43 178.441 1265.79 174.391V174.391C1271 171.076 1276.56 168.34 1282.36 166.23L1286.29 164.801C1289.46 163.647 1292.73 162.787 1296.06 162.232V162.232Z" fill="black"/>
<path d="M1436.81 163.067H1492.26C1496.43 163.067 1500.55 164.038 1504.28 165.904L1507.04 167.287C1509.81 168.669 1512.12 170.812 1513.71 173.464V173.464C1515.23 175.991 1516.03 178.882 1516.03 181.829V183.914C1516.03 187.882 1514.85 191.762 1512.65 195.064V195.064C1510.71 197.975 1508.05 200.329 1504.92 201.893L1504.53 202.088C1501.67 203.518 1498.53 204.299 1495.33 204.377L1439.21 205.746C1436.66 205.808 1434.22 206.851 1432.41 208.659L1432.17 208.9C1430.11 210.965 1429.14 213.881 1429.55 216.772V216.772C1430.11 220.666 1433.06 223.786 1436.91 224.558L1437.62 224.699C1438.14 224.803 1438.66 224.866 1439.19 224.889L1466.65 226.083C1472.08 226.319 1477.43 227.383 1482.54 229.239V229.239C1488.96 231.575 1494.88 235.127 1499.96 239.701L1500.4 240.094C1505.49 244.68 1509.68 250.183 1512.75 256.315L1513.95 258.724C1515.33 261.481 1516.34 264.409 1516.94 267.432V267.432C1517.39 269.672 1517.61 271.95 1517.61 274.234V277.794C1517.61 283.655 1516.67 289.477 1514.82 295.037L1514.39 296.317C1512.34 302.477 1509.05 308.157 1504.74 313.011V313.011C1500.68 317.57 1495.8 321.315 1490.34 324.043L1483.74 327.342C1480.99 328.72 1478.06 329.725 1475.04 330.33V330.33C1472.8 330.778 1470.52 331.003 1468.24 331.003H1413.49C1411.09 331.003 1408.71 330.67 1406.42 330.013L1404.89 329.576C1400.92 328.441 1397.36 326.115 1394.71 322.941V322.941C1392.22 319.943 1390.61 316.27 1390.13 312.398V312.398C1389.58 308.02 1390.47 303.584 1392.66 299.754L1393.34 298.553C1394.84 295.937 1396.98 293.75 1399.56 292.201V292.201C1402.17 290.635 1405.14 289.773 1408.19 289.701L1465.68 288.332C1468.51 288.264 1471.2 287.111 1473.2 285.112L1473.83 284.482C1475.49 282.822 1476.42 280.571 1476.42 278.223V278.223C1476.42 275.534 1475.2 272.99 1473.1 271.31L1471.69 270.184C1469.62 268.524 1467.07 267.563 1464.42 267.436L1440.27 266.287C1436.92 266.127 1433.58 265.68 1430.3 264.951L1430.14 264.915C1424.07 263.566 1418.25 261.247 1412.92 258.047L1412.32 257.688C1407.55 254.828 1403.26 251.242 1399.6 247.06L1398.83 246.175C1395.66 242.546 1393.07 238.44 1391.17 234.008L1390.92 233.413C1389.83 230.883 1389.01 228.247 1388.47 225.547V225.547C1387.96 222.979 1387.7 220.367 1387.7 217.748V214.905C1387.7 210.988 1388.13 207.082 1388.98 203.258V203.258C1390.23 197.625 1392.38 192.23 1395.35 187.282L1396.78 184.905C1399.16 180.934 1402.17 177.373 1405.68 174.36V174.36C1409.51 171.081 1413.88 168.499 1418.6 166.73L1419.07 166.551C1422.44 165.289 1425.94 164.426 1429.51 163.98L1436.81 163.067Z" fill="black"/>
<path d="M964.485 163.629C966.731 163.255 969.004 163.067 971.281 163.067H1028.9C1032.52 163.067 1036.09 163.91 1039.32 165.529L1039.86 165.797C1042.53 167.129 1044.87 169.025 1046.73 171.352L1046.98 171.662C1049.12 174.333 1050.5 177.527 1050.98 180.912V180.912C1051.53 184.766 1050.9 188.697 1049.15 192.179L1049.04 192.413C1047.74 194.998 1045.91 197.272 1043.65 199.078L1041.28 200.973C1039.87 202.098 1038.28 202.966 1036.57 203.535V203.535C1035.13 204.015 1033.63 204.277 1032.11 204.314L972.745 205.762C970.626 205.814 968.608 206.679 967.109 208.178V208.178C965.561 209.726 964.691 211.826 964.691 214.015V214.612C964.691 218.018 966.478 221.174 969.398 222.926L970.161 223.384C971.77 224.349 973.594 224.897 975.469 224.979L1000.87 226.083C1006.29 226.319 1011.65 227.383 1016.75 229.239V229.239C1023.18 231.575 1029.09 235.127 1034.17 239.701L1035.55 240.937C1040.03 244.974 1043.82 249.727 1046.75 255.003L1048.6 258.341C1049.69 260.301 1050.52 262.395 1051.06 264.571V264.571C1051.57 266.603 1051.83 268.69 1051.83 270.785V280.915C1051.83 285.758 1051.05 290.569 1049.52 295.164V295.164C1047.9 300.01 1045.47 304.546 1042.34 308.578L1041.38 309.808C1037.81 314.402 1033.46 318.429 1028.61 321.658V321.658C1024.08 324.678 1019.01 327.064 1013.8 328.629V328.629C1008.59 330.191 1003.12 331.003 997.685 331.003H949.527C945.943 331.003 942.396 330.275 939.102 328.863V328.863C935.099 327.148 931.582 324.471 928.861 321.07L927.252 319.059C926.864 318.573 926.528 318.048 926.249 317.492V317.492C925.488 315.97 925.183 314.26 925.371 312.569L926.031 306.637C926.447 302.89 927.918 299.339 930.273 296.395L930.808 295.726C932.256 293.917 934.078 292.443 936.15 291.407V291.407C938.252 290.356 940.56 289.781 942.91 289.722L1000.6 288.28C1001.99 288.245 1003.36 287.904 1004.61 287.281V287.281C1007.39 285.889 1009.31 283.219 1009.75 280.138L1009.92 278.965C1010.37 275.819 1009.31 272.646 1007.07 270.399V270.399C1005.29 268.618 1002.9 267.567 1000.39 267.453L976.927 266.387C971.957 266.161 967.034 265.324 962.269 263.894L961.247 263.587C956.178 262.067 951.363 259.801 946.959 256.866L946.404 256.496C941.73 253.38 937.62 249.492 934.25 244.998V244.998C931.323 241.096 928.989 236.784 927.323 232.201L926.168 229.025C924.402 224.17 923.499 219.043 923.499 213.877V213.877C923.499 210.643 923.853 207.419 924.555 204.262L924.852 202.925C926.055 197.512 928.122 192.329 930.975 187.575V187.575C934.408 181.852 938.919 176.851 944.257 172.847L945.661 171.794C947.781 170.204 950.041 168.808 952.411 167.622L952.794 167.431C956.48 165.588 960.42 164.307 964.485 163.629V163.629Z" fill="black"/>
<path d="M825.155 163.09C830.489 162.023 835.944 161.694 841.368 162.111L843.946 162.31C850.478 162.812 856.911 164.202 863.068 166.441V166.441C868.481 168.409 873.639 171.019 878.432 174.214L880.53 175.613C883.819 177.805 886.883 180.317 889.678 183.112V183.112C894.24 187.674 898.037 192.942 900.922 198.712L903.528 203.924C907.309 211.486 909.776 219.635 910.825 228.023V228.023V310.159C910.825 313.448 910.059 316.692 908.588 319.633L908.459 319.891C906.895 323.02 904.541 325.687 901.63 327.627V327.627C898.328 329.828 894.448 331.003 890.479 331.003H889.494C885.828 331.003 882.231 330.007 879.087 328.121L878.973 328.052C876.987 326.86 875.229 325.324 873.782 323.515V323.515C871.092 320.152 869.591 315.993 869.514 311.688L868.155 235.6C868.084 231.634 867.337 227.71 865.944 223.995L865.378 222.486C864.005 218.826 861.866 215.503 859.102 212.74V212.74C856.639 210.277 853.729 208.307 850.528 206.935L849.38 206.443C846.018 205.002 842.397 204.259 838.739 204.259V204.259C835.08 204.259 831.46 205.002 828.097 206.443L827.472 206.711C823.925 208.231 820.702 210.413 817.973 213.142L816.27 214.845C814.887 216.228 813.736 217.825 812.861 219.574V219.574C811.645 222.007 810.989 224.682 810.943 227.402L809.523 311.216C809.461 314.838 808.448 318.379 806.584 321.485L806.444 321.719C805.275 323.668 803.767 325.393 801.992 326.813V326.813C798.602 329.525 794.389 331.003 790.047 331.003H789.052C784.777 331.003 780.598 329.738 777.041 327.367L776.434 326.962C774.166 325.45 772.263 323.454 770.86 321.116V321.116C769.144 318.256 768.237 314.982 768.237 311.646V232.628C768.237 225.374 769.322 218.161 771.455 211.228L771.573 210.844C773.563 204.375 776.481 198.23 780.235 192.599L780.783 191.777C782.976 188.488 785.488 185.424 788.283 182.629V182.629C792.845 178.067 798.112 174.27 803.882 171.385L810.232 168.21C814.957 165.848 819.975 164.126 825.155 163.09V163.09Z" fill="#9400D3"/>
<path d="M1154.76 116.342C1156.87 115.813 1159.09 115.784 1161.22 116.257L1166.38 117.404C1170.17 118.248 1173.59 120.328 1176.08 123.317V123.317C1178.71 126.48 1180.16 130.467 1180.16 134.584V160.346C1180.16 161.849 1181.37 163.067 1182.88 163.067V163.067H1201.58C1205.21 163.067 1208.78 163.91 1212.01 165.529L1213.1 166.073C1215.4 167.224 1217.43 168.86 1219.04 170.87V170.87C1221.56 174.023 1222.93 177.941 1222.93 181.98V183.914C1222.93 187.882 1221.76 191.762 1219.56 195.064V195.064C1217.62 197.975 1214.95 200.329 1211.82 201.893L1211.56 202.022C1208.62 203.493 1205.38 204.259 1202.09 204.259H1186.49V204.259C1183.02 204.259 1180.22 207.118 1180.29 210.594L1181.69 274.739C1181.72 276.325 1182.04 277.891 1182.63 279.363V279.363C1184.08 282.975 1187.04 285.768 1190.73 286.998L1192.57 287.613C1193.8 288.021 1195.06 288.292 1196.35 288.42L1205.91 289.377C1208.78 289.663 1211.54 290.578 1214 292.057L1214.42 292.309C1216.89 293.79 1218.95 295.855 1220.43 298.322V298.322C1222.07 301.046 1222.93 304.164 1222.93 307.341V310.658C1222.93 314.627 1221.76 318.506 1219.56 321.808V321.808C1217.62 324.719 1214.95 327.073 1211.82 328.638L1211.56 328.766C1208.62 330.237 1205.38 331.003 1202.09 331.003H1197.72C1194.47 331.003 1191.24 330.605 1188.09 329.818L1184.96 329.036C1177.6 327.195 1170.63 324.017 1164.41 319.662L1164.04 319.403C1160.01 316.586 1156.36 313.273 1153.16 309.542L1152.53 308.802C1149.83 305.659 1147.53 302.198 1145.68 298.495V298.495C1143.33 293.791 1141.73 288.749 1140.93 283.55L1140 277.552C1139.31 273.057 1138.96 268.515 1138.96 263.967V208.697C1138.96 206.87 1138.24 205.117 1136.95 203.825V203.825C1136.19 203.068 1135.27 202.498 1134.25 202.16L1131.92 201.383C1128.27 200.166 1125.13 197.768 1123 194.567L1122.35 193.599C1120.77 191.232 1119.77 188.53 1119.42 185.708V185.708C1119.25 184.349 1119.23 182.975 1119.37 181.612L1119.58 179.465C1119.83 177.013 1120.61 174.645 1121.88 172.532V172.532C1123.72 169.471 1126.48 167.079 1129.78 165.706L1133.68 164.081C1134.03 163.933 1134.4 163.827 1134.78 163.764V163.764C1137.2 163.362 1138.96 161.273 1138.96 158.826V155.145V138.189C1138.96 135.778 1139.35 133.383 1140.12 131.096V131.096C1141.43 127.139 1143.83 123.629 1147.03 120.959L1149.17 119.18C1150.8 117.825 1152.71 116.855 1154.76 116.342V116.342Z" fill="black"/>
<path d="M1075.73 166.143C1078.74 164.137 1082.27 163.067 1085.89 163.067V163.067C1089.51 163.067 1093.04 164.137 1096.05 166.143L1099.47 168.422C1100.45 169.075 1101.36 169.823 1102.19 170.656L1102.5 170.959C1104.59 173.052 1106.07 175.673 1106.79 178.544V178.544C1107.11 179.839 1107.28 181.169 1107.28 182.504V308.335C1107.28 311.793 1106.58 315.215 1105.21 318.393L1104.07 321.063C1103.06 323.424 1101.44 325.477 1099.39 327.018V327.018C1097.29 328.59 1094.82 329.571 1092.21 329.861L1089.69 330.141C1084.65 330.701 1079.56 329.647 1075.15 327.13L1073.47 326.171C1071.74 325.178 1070.22 323.84 1069.02 322.238V322.238C1067.12 319.701 1066.09 316.614 1066.09 313.441V182.424C1066.09 179.088 1066.99 175.814 1068.71 172.953V172.953C1070.11 170.616 1072.02 168.62 1074.28 167.108L1075.73 166.143Z" fill="black"/>
<path d="M1075.2 108.97C1078.57 107.044 1082.39 106.032 1086.27 106.032H1086.46C1090.74 106.032 1094.92 107.297 1098.47 109.668V109.668C1101.14 111.446 1103.38 113.795 1105.03 116.544L1105.33 117.041C1106.62 119.188 1107.49 121.558 1107.9 124.028V124.028C1108.53 127.794 1108.06 131.662 1106.56 135.171L1106.05 136.352C1104.78 139.333 1102.81 141.969 1100.32 144.045V144.045C1096.63 147.122 1091.97 148.808 1087.16 148.808H1086.23C1080.41 148.808 1074.8 146.617 1070.53 142.671L1068.43 140.738C1067.41 139.789 1066.56 138.66 1065.93 137.408V137.408C1065.51 136.562 1065.19 135.666 1064.99 134.742L1064.48 132.466C1063.97 130.172 1063.82 127.813 1064.03 125.472L1064.11 124.585C1064.37 121.758 1065.26 119.027 1066.72 116.593V116.593C1068.38 113.823 1070.73 111.527 1073.53 109.925L1075.2 108.97Z" fill="black"/>
<path d="M123.033 281.5C96.0573 281.5 70.3552 270.025 52.346 249.942L51.5784 249.076C19.3341 212.239 20.3722 156.816 54.1536 121.209L133.971 37.0768C153.703 16.2785 181.113 4.49979 209.782 4.49966H407.76C417.715 4.49966 425.785 12.5701 425.785 22.5251C425.785 32.4801 417.715 40.5504 407.76 40.5504H211.83C184.49 40.5506 158.46 52.2691 140.334 72.7379L79.14 141.843C57.4855 166.298 57.6783 203.123 79.5882 227.348C91.7425 240.787 109.017 248.455 127.137 248.455H289.038C298.163 248.455 305.561 255.852 305.561 264.977C305.561 274.102 298.163 281.5 289.038 281.5H123.033Z" fill="#9400D3" stroke="#9400D3" stroke-width="9"/>
<path d="M368.384 129.233C395.359 129.233 421.061 140.707 439.07 160.79L439.838 161.656C472.082 198.493 471.044 253.916 437.263 289.524L357.445 373.655C337.714 394.454 310.304 406.232 281.635 406.233H83.6562C73.7012 406.233 65.6309 398.162 65.6308 388.207C65.6308 378.252 73.7011 370.182 83.6562 370.182H279.586C306.927 370.182 332.956 358.463 351.082 337.994L412.276 268.889C433.931 244.435 433.738 207.609 411.828 183.384C399.674 169.945 382.399 162.277 364.279 162.277H202.378C193.253 162.277 185.855 154.88 185.855 145.755C185.855 136.63 193.253 129.233 202.378 129.233H368.384Z" fill="#9400D3" stroke="#9400D3" stroke-width="9"/>
</svg>
