<svg width="580" height="168" viewBox="0 0 580 168" fill="none" xmlns="http://www.w3.org/2000/svg">
<path d="M276.727 43.641C277.57 43.2195 278.5 43 279.442 43H280.645C282.079 43 283.482 43.4245 284.675 44.2201V44.2201C285.847 45.0018 286.767 46.1076 287.322 47.4029L287.544 47.9211C288.033 49.0614 288.285 50.2891 288.285 51.5298V95.9159C288.285 98.114 288.117 100.309 287.783 102.481L287.652 103.331C287.269 105.821 286.62 108.262 285.716 110.613L285.674 110.722C284.598 113.518 283.161 116.162 281.399 118.585L281.143 118.936C279.863 120.696 278.397 122.313 276.771 123.759V123.759C274.784 125.525 272.573 127.022 270.195 128.211L269.676 128.471C267.581 129.518 265.352 130.34 263.079 130.908V130.908C260.567 131.536 257.96 131.86 255.371 131.86V131.86C253.14 131.86 250.916 131.625 248.735 131.157L247.61 130.916C244.919 130.34 242.326 129.378 239.91 128.06V128.06C237.913 126.971 236.053 125.646 234.369 124.116L233.69 123.499C231.409 121.425 229.416 119.058 227.761 116.457V116.457C226.604 114.64 225.62 112.719 224.82 110.719L224.155 109.058C223.789 108.142 223.507 107.194 223.314 106.227V106.227C223.105 105.184 223 104.122 223 103.059V98.324C223 95.3098 223.451 92.3126 224.337 89.4318V89.4318C225.055 87.0985 226.053 84.8607 227.309 82.7673L229.045 79.874V79.874C230.65 77.8681 232.516 76.0859 234.593 74.575L235.253 74.0953C237.154 72.7124 239.191 71.5254 241.331 70.5525L242.832 69.8703C244.116 69.2867 245.45 68.8211 246.818 68.4791V68.4791C248.664 68.0176 250.56 67.7842 252.463 67.7842H258.503C260.194 67.7842 261.855 68.2254 263.323 69.0643L264.485 69.7284C265.031 70.04 265.496 70.4742 265.844 70.9966V70.9966C266.287 71.6611 266.523 72.4417 266.523 73.2403V76.2469C266.523 77.4337 266.201 78.5981 265.59 79.6157V79.6157C265.013 80.5778 264.198 81.3753 263.224 81.932L262.47 82.3628C261.16 83.1116 259.695 83.5499 258.189 83.6441L253.504 83.9369C251.72 84.0484 249.97 84.4772 248.337 85.2032V85.2032C246.379 86.0733 244.63 87.3518 243.207 88.953L241.949 90.3681C241.013 91.421 240.301 92.653 239.855 93.9894V93.9894C239.502 95.0501 239.321 96.1608 239.321 97.2789V99.6326C239.321 102.143 239.906 104.618 241.028 106.863L241.107 107.02C242.313 109.434 244.129 111.49 246.375 112.987L246.459 113.043C247.738 113.896 249.141 114.545 250.619 114.967V114.967C251.947 115.347 253.321 115.539 254.701 115.539H255.165C257.477 115.539 259.768 115.098 261.914 114.239L262.821 113.877C264.072 113.376 265.237 112.682 266.273 111.819V111.819C267.634 110.684 268.746 109.281 269.538 107.696L270.272 106.229C270.993 104.787 271.494 103.245 271.759 101.655V101.655C271.895 100.837 271.969 100.011 271.978 99.1818L272.534 50.8083C272.556 48.8857 273.24 47.0295 274.471 45.5524L274.778 45.1847C275.314 44.5412 275.978 44.0156 276.727 43.641V43.641Z" fill="#9400D3"/>
<path d="M494.514 67.4658C495.656 67.2754 496.813 67.1797 497.971 67.1797H498.927C501.552 67.1797 504.168 67.5016 506.714 68.1383L507.715 68.3885C509.323 68.7904 510.882 69.367 512.364 70.1081L512.564 70.2081C514.161 71.0069 515.65 72.0064 516.994 73.1825C518.854 74.8098 520.411 76.7529 521.595 78.9222L522.825 81.1772C523.228 81.9174 523.536 82.706 523.741 83.5239C523.938 84.3116 524.037 85.1205 524.037 85.9325V88.4897C524.037 90.7803 523.556 93.0454 522.626 95.1386C521.959 96.6405 521.069 98.0333 519.986 99.2702L518.138 101.382C517.639 101.953 517.086 102.475 516.488 102.94L516.404 103.005C515.257 103.897 513.949 104.561 512.552 104.96L512.482 104.984C511.321 105.371 510.132 105.666 508.925 105.867L499.369 106.37C498.096 106.437 496.824 106.241 495.63 105.793L494.444 105.348C493.252 104.901 492.247 104.064 491.592 102.973C491.067 102.098 490.79 101.097 490.79 100.076V99.6141C490.79 98.1732 491.217 96.7645 492.016 95.5656L492.277 95.174C492.89 94.2544 493.7 93.4824 494.647 92.9137C495.687 92.2899 496.863 91.9287 498.074 91.8615L505.921 91.4255C506.67 91.3839 507.356 90.9919 507.773 90.3676C508.123 89.8415 508.251 89.1976 508.127 88.5776L507.971 87.7998C507.805 86.9675 507.396 86.2032 506.795 85.6031L506.769 85.5764C506.202 85.0094 505.491 84.6072 504.714 84.4128L502.933 83.9675C501.698 83.6588 500.419 83.5657 499.152 83.6924L497.622 83.8454C495.903 84.0173 494.229 84.5016 492.684 85.2744C491.034 86.0992 489.561 87.2374 488.346 88.6253L487.658 89.4124C486.531 90.6998 485.646 92.18 485.046 93.7818C484.447 95.3778 484.141 97.0684 484.141 98.773V100.691C484.141 102.903 484.655 105.083 485.644 107.061C487.023 109.818 489.258 112.053 492.014 113.431L493.903 114.375C494.646 114.747 495.428 115.036 496.235 115.238C497.035 115.438 497.856 115.551 498.681 115.574L516.935 116.081C518.416 116.122 519.855 116.579 521.087 117.401C522.228 118.161 523.151 119.207 523.764 120.433L523.931 120.767C524.398 121.702 524.642 122.732 524.642 123.777C524.642 125.106 524.248 126.405 523.511 127.511L522.993 128.288C522.484 129.052 521.848 129.724 521.114 130.275L521.044 130.327C520.227 130.94 519.295 131.384 518.303 131.631C517.695 131.783 517.071 131.86 516.444 131.86H500.05C498.313 131.86 496.578 131.717 494.864 131.431C491.763 130.914 488.756 129.936 485.943 128.53L485.772 128.445C483.085 127.101 480.596 125.395 478.373 123.375L478.112 123.137C476.095 121.304 474.332 119.21 472.869 116.91C471.522 114.795 470.441 112.523 469.648 110.144L469.18 108.739C468.677 107.231 468.311 105.68 468.086 104.105C467.908 102.863 467.819 101.611 467.819 100.356V100.056C467.819 97.8912 468.048 95.7326 468.502 93.616L468.818 92.1374C469.359 89.6139 470.217 87.1689 471.371 84.8605C472.624 82.354 474.216 80.0315 476.101 77.958L476.387 77.6432C478.323 75.513 480.535 73.6504 482.964 72.1048C484.952 70.8401 487.071 69.796 489.285 68.991L490.784 68.4459C491.994 68.0057 493.243 67.6776 494.514 67.4658Z" fill="black"/>
<path d="M548.217 67.7842H569.371C570.963 67.7842 572.533 68.1548 573.957 68.8667L575.012 69.3943C576.067 69.9219 576.95 70.7395 577.557 71.7512C578.136 72.7153 578.441 73.8185 578.441 74.9429V75.7383C578.441 77.2525 577.993 78.7329 577.153 79.9928C576.413 81.1033 575.395 82.0015 574.202 82.5984L574.053 82.6728C572.962 83.2182 571.764 83.5164 570.545 83.5461L549.132 84.0684C548.156 84.0922 547.228 84.4903 546.538 85.1801L546.446 85.2719C545.658 86.0598 545.287 87.1726 545.445 88.2756C545.657 89.7613 546.783 90.9517 548.255 91.2461L548.524 91.3C548.722 91.3395 548.922 91.3638 549.124 91.3725L559.602 91.8281C561.672 91.9181 563.715 92.3241 565.662 93.0321C568.114 93.9236 570.371 95.2789 572.31 97.024L572.476 97.1739C574.421 98.9239 576.02 101.023 577.189 103.363L577.649 104.282C578.175 105.334 578.558 106.452 578.789 107.605C578.96 108.459 579.046 109.329 579.046 110.2V111.559C579.046 113.795 578.685 116.016 577.978 118.137L577.816 118.626C577.032 120.976 575.779 123.143 574.133 124.995C572.587 126.735 570.722 128.164 568.64 129.205L566.123 130.463C565.071 130.989 563.954 131.373 562.8 131.603C561.946 131.774 561.077 131.86 560.205 131.86H539.316C538.403 131.86 537.495 131.733 536.618 131.483L536.035 131.316C534.52 130.883 533.162 129.995 532.153 128.784C531.2 127.64 530.588 126.239 530.404 124.761C530.195 123.091 530.533 121.399 531.368 119.937L531.63 119.479C532.201 118.481 533.018 117.647 534.003 117.055C534.999 116.458 536.133 116.129 537.294 116.101L559.231 115.579C560.309 115.553 561.337 115.114 562.1 114.351L562.34 114.11C562.973 113.477 563.329 112.618 563.329 111.722C563.329 110.696 562.863 109.725 562.061 109.085L561.524 108.655C560.733 108.022 559.761 107.655 558.749 107.606L549.537 107.168C548.256 107.107 546.983 106.936 545.731 106.658L545.669 106.644C543.353 106.13 541.135 105.245 539.1 104.024L538.871 103.887C537.053 102.796 535.416 101.428 534.019 99.8317L533.724 99.4941C532.513 98.1095 531.526 96.543 530.802 94.852L530.704 94.625C530.291 93.6595 529.978 92.6537 529.772 91.6237C529.576 90.6439 529.478 89.6471 529.478 88.6479V87.5632C529.478 86.0685 529.641 84.5783 529.965 83.1192C530.443 80.9698 531.264 78.9115 532.397 77.0234L532.941 76.1167C533.85 74.6015 534.997 73.2429 536.339 72.093C537.798 70.8421 539.466 69.8569 541.265 69.182L541.447 69.1138C542.732 68.632 544.069 68.3027 545.43 68.1325L548.217 67.7842Z" fill="black"/>
<path d="M368 67.9988C368.856 67.856 369.724 67.7842 370.592 67.7842H392.575C393.957 67.7842 395.319 68.1058 396.555 68.7236L396.759 68.8258C397.776 69.3343 398.671 70.0575 399.381 70.9454L399.476 71.0638C400.291 72.0827 400.818 73.3014 401.003 74.5932C401.213 76.0637 400.969 77.5634 400.305 78.892L400.26 78.9812C399.767 79.9676 399.066 80.8353 398.204 81.5243L397.301 82.2474C396.764 82.6767 396.156 83.0077 395.504 83.225C394.955 83.408 394.382 83.5081 393.803 83.5223L371.151 84.0747C370.343 84.0945 369.573 84.4245 369.001 84.9964C368.41 85.5871 368.078 86.3883 368.078 87.2237V87.4513C368.078 88.7508 368.76 89.955 369.874 90.6236L370.165 90.7982C370.779 91.1665 371.475 91.3757 372.19 91.4068L381.881 91.8281C383.951 91.9181 385.995 92.3241 387.941 93.0321C390.393 93.9236 392.65 95.2789 394.589 97.024L395.113 97.4957C396.825 99.0361 398.269 100.85 399.387 102.863L400.095 104.136C400.51 104.884 400.826 105.683 401.033 106.513C401.227 107.289 401.325 108.085 401.325 108.884V112.749C401.325 114.597 401.027 116.433 400.443 118.186C399.827 120.035 398.9 121.766 397.704 123.304L397.339 123.773C395.975 125.526 394.316 127.063 392.468 128.295C390.739 129.447 388.805 130.357 386.814 130.954C384.828 131.55 382.741 131.86 380.667 131.86H362.292C360.925 131.86 359.572 131.583 358.315 131.044C356.787 130.389 355.445 129.368 354.407 128.071L353.793 127.303C353.645 127.118 353.517 126.917 353.411 126.705C353.12 126.124 353.004 125.472 353.076 124.827L353.327 122.563C353.486 121.134 354.047 119.779 354.946 118.656L355.15 118.4C355.702 117.71 356.398 117.148 357.188 116.753C357.99 116.351 358.871 116.132 359.768 116.11L381.779 115.559C382.311 115.546 382.832 115.416 383.308 115.178C384.37 114.647 385.104 113.628 385.272 112.453L385.336 112.005C385.507 110.805 385.104 109.594 384.247 108.737C383.567 108.057 382.658 107.656 381.698 107.613L372.747 107.206C370.851 107.12 368.972 106.8 367.154 106.255L366.764 106.138C364.83 105.558 362.993 104.693 361.312 103.573L361.101 103.432C359.317 102.243 357.749 100.76 356.463 99.045C355.347 97.5563 354.456 95.9111 353.82 94.1623L353.38 92.9505C352.706 91.098 352.361 89.1421 352.361 87.1709C352.361 85.937 352.496 84.7067 352.764 83.5022L352.877 82.992C353.336 80.9268 354.125 78.9492 355.214 77.1352C356.524 74.9519 358.245 73.0435 360.282 71.5158L360.817 71.1142C361.626 70.5074 362.488 69.9746 363.393 69.5223L363.539 69.4493C364.945 68.7462 366.449 68.2573 368 67.9988Z" fill="black"/>
<path d="M314.838 67.7931C316.873 67.3861 318.955 67.2604 321.024 67.4196L322.008 67.4953C324.5 67.687 326.955 68.2173 329.304 69.0715V69.0715C331.369 69.8226 333.337 70.8183 335.166 72.0374L335.967 72.5712C337.221 73.4078 338.391 74.3662 339.457 75.4326V75.4326C341.198 77.1732 342.646 79.183 343.747 81.3846L344.741 83.3734C346.184 86.2584 347.125 89.3677 347.525 92.5684V92.5684V123.907C347.525 125.162 347.233 126.4 346.672 127.522L346.623 127.621C346.026 128.814 345.128 129.832 344.017 130.572V130.572C342.757 131.412 341.277 131.86 339.763 131.86H339.387C337.988 131.86 336.615 131.48 335.416 130.76L335.373 130.734C334.615 130.28 333.944 129.693 333.392 129.003V129.003C332.365 127.72 331.793 126.133 331.763 124.491L331.245 95.4594C331.218 93.9462 330.933 92.4487 330.401 91.0316L330.185 90.4555C329.662 89.0593 328.845 87.7914 327.791 86.7369V86.7369C326.851 85.7973 325.741 85.0455 324.519 84.522L324.081 84.3344C322.798 83.7845 321.417 83.501 320.021 83.501V83.501C318.625 83.501 317.244 83.7845 315.961 84.3344L315.722 84.4366C314.369 85.0165 313.139 85.8493 312.098 86.8902L311.448 87.5403C310.92 88.0679 310.481 88.6772 310.148 89.3445V89.3445C309.683 90.2729 309.433 91.2936 309.416 92.3315L308.874 124.311C308.85 125.692 308.464 127.044 307.753 128.229L307.699 128.318C307.253 129.062 306.678 129.72 306 130.262V130.262C304.707 131.296 303.099 131.86 301.443 131.86H301.063C299.432 131.86 297.837 131.378 296.48 130.473L296.249 130.318C295.383 129.742 294.657 128.98 294.122 128.088V128.088C293.467 126.997 293.121 125.747 293.121 124.475V94.3252C293.121 91.5575 293.535 88.8055 294.349 86.1602L294.394 86.0135C295.153 83.5455 296.267 81.2007 297.699 79.0523L297.908 78.7384C298.745 77.4836 299.703 76.3144 300.77 75.248V75.248C302.51 73.5075 304.52 72.0589 306.722 70.9581L309.144 69.7467C310.947 68.8454 312.862 68.1884 314.838 67.7931V67.7931Z" fill="#9400D3"/>
<path d="M440.598 49.9564C441.406 49.7545 442.249 49.7434 443.062 49.924L445.031 50.3616C446.48 50.6837 447.782 51.4771 448.733 52.6178C449.738 53.8245 450.289 55.3456 450.289 56.9164V66.7462C450.289 67.3195 450.754 67.7842 451.327 67.7842H458.465C459.846 67.7842 461.209 68.1058 462.444 68.7236L462.859 68.9311C463.738 69.3703 464.51 69.9947 465.123 70.7614C466.086 71.9646 466.61 73.4596 466.61 75.0004V75.7383C466.61 77.2525 466.162 78.7329 465.322 79.9928C464.582 81.1033 463.564 82.0015 462.371 82.5984L462.272 82.6476C461.15 83.2088 459.912 83.501 458.657 83.501H452.707C451.38 83.501 450.313 84.5919 450.342 85.9184L450.874 110.393C450.887 110.998 451.009 111.595 451.233 112.157C451.785 113.535 452.915 114.601 454.323 115.07L455.027 115.305C455.494 115.46 455.977 115.564 456.467 115.613L460.117 115.978C461.208 116.087 462.262 116.436 463.203 117.001L463.363 117.097C464.304 117.662 465.092 118.449 465.657 119.391C466.281 120.43 466.61 121.62 466.61 122.832V124.098C466.61 125.612 466.162 127.092 465.322 128.352C464.582 129.463 463.564 130.361 462.371 130.958L462.272 131.007C461.15 131.568 459.912 131.86 458.657 131.86H456.99C455.751 131.86 454.517 131.708 453.316 131.408L452.123 131.11C449.312 130.407 446.654 129.195 444.28 127.533L444.139 127.434C442.603 126.359 441.209 125.095 439.989 123.672L439.747 123.39C438.719 122.19 437.842 120.87 437.136 119.457C436.238 117.662 435.626 115.738 435.321 113.755L434.969 111.466C434.705 109.751 434.572 108.018 434.572 106.283V85.1945C434.572 84.4972 434.295 83.8285 433.802 83.3354C433.514 83.0467 433.162 82.8293 432.774 82.7002L431.885 82.4037C430.492 81.9395 429.294 81.0244 428.48 79.803L428.234 79.4338C427.632 78.5307 427.248 77.4999 427.114 76.4229C427.049 75.9043 427.042 75.3801 427.094 74.8601L427.176 74.041C427.27 73.1053 427.569 72.202 428.053 71.3957C428.754 70.2278 429.81 69.315 431.067 68.7912L432.555 68.1712C432.691 68.1149 432.832 68.0743 432.976 68.0502C433.897 67.8967 434.572 67.0998 434.572 66.166V64.7617V58.292C434.572 57.3722 434.721 56.4585 435.011 55.5859C435.515 54.0762 436.429 52.7367 437.651 51.7179L438.466 51.0391C439.086 50.5223 439.815 50.1522 440.598 49.9564Z" fill="black"/>
<path d="M410.446 68.9578C411.594 68.1925 412.942 67.7842 414.322 67.7842C415.701 67.7842 417.05 68.1925 418.198 68.9578L419.502 69.8275C419.876 70.0767 420.224 70.3621 420.542 70.6797L420.658 70.7955C421.456 71.5939 422.023 72.5942 422.296 73.6896C422.42 74.1837 422.482 74.6911 422.482 75.2005V123.211C422.482 124.531 422.214 125.836 421.695 127.049L421.258 128.068C420.872 128.968 420.256 129.752 419.472 130.34C418.673 130.94 417.727 131.314 416.733 131.424L415.771 131.531C413.847 131.745 411.905 131.343 410.224 130.383L409.584 130.017C408.921 129.638 408.343 129.127 407.884 128.516C407.158 127.548 406.766 126.37 406.766 125.16V75.17C406.766 73.897 407.112 72.648 407.767 71.5564C408.302 70.6647 409.028 69.9029 409.893 69.3261L410.446 68.9578Z" fill="black"/>
<path d="M410.244 47.1436C411.53 46.4089 412.985 46.0225 414.466 46.0225H414.541C416.172 46.0225 417.766 46.5052 419.123 47.41C420.141 48.0885 420.995 48.9845 421.625 50.0334L421.739 50.2231C422.23 51.0423 422.563 51.9467 422.72 52.8891C422.96 54.326 422.782 55.8016 422.208 57.1406L422.015 57.5912C421.528 58.7284 420.778 59.7342 419.827 60.5263C418.418 61.7006 416.642 62.3438 414.808 62.3438H414.45C412.23 62.3438 410.091 61.5077 408.46 60.002L407.661 59.2647C407.269 58.9024 406.945 58.472 406.707 57.9942C406.545 57.6712 406.424 57.3295 406.345 56.9769L406.152 56.1085C405.958 55.2332 405.9 54.333 405.981 53.44L406.012 53.1013C406.11 52.023 406.45 50.9806 407.008 50.0521C407.642 48.9954 408.537 48.1193 409.607 47.5079L410.244 47.1436Z" fill="black"/>
<path d="M46.9427 115.755C35.8598 115.755 25.3 111.041 17.9008 102.79L17.2748 102.075C4.34487 86.9408 4.873 64.4125 18.6429 49.8979L40.2972 27.0737C53.9702 12.6618 72.9636 4.50046 92.8295 4.50046H155.581C160.917 4.50067 165.242 8.82537 165.242 14.1606C165.242 19.4958 160.917 23.8206 155.581 23.8208H89.0238C74.1741 23.8209 60.0365 30.1859 50.1918 41.3032L32.2797 61.5317C24.9575 69.8006 25.0225 82.2522 32.431 90.4438C36.5409 94.9881 42.3821 97.5815 48.5092 97.5815H110.283C115.301 97.5815 119.37 101.65 119.37 106.668C119.37 111.687 115.301 115.755 110.283 115.755H46.9427Z" fill="#9400D3" stroke="#9400D3" stroke-width="9"/>
<path d="M140.557 52.0917C151.64 52.0918 162.2 56.8063 169.599 65.0576L170.225 65.7724C183.155 80.9063 182.627 103.435 168.857 117.949L147.203 140.773C133.53 155.185 114.536 163.347 94.6705 163.347H31.9186C26.5834 163.346 22.2584 159.022 22.2584 153.686C22.2584 148.351 26.5834 144.027 31.9186 144.026H98.4762C113.326 144.026 127.463 137.661 137.308 126.544L155.22 106.315C162.542 98.0465 162.477 85.5949 155.069 77.4033C150.959 72.859 145.118 70.2656 138.991 70.2656H77.2174C72.1987 70.2656 68.1295 66.1973 68.1295 61.1786C68.1296 56.1601 72.1988 52.0917 77.2174 52.0917H140.557Z" fill="#9400D3" stroke="#9400D3" stroke-width="9"/>
</svg>
