<svg width="595" height="158" viewBox="0 0 595 158" fill="none" xmlns="http://www.w3.org/2000/svg">
<path d="M291.727 32.641C292.57 32.2195 293.5 32 294.442 32H295.645C297.079 32 298.482 32.4245 299.675 33.2201C300.847 34.0018 301.767 35.1076 302.322 36.4029L302.544 36.9211C303.033 38.0614 303.285 39.2891 303.285 40.5298V84.9159C303.285 87.114 303.117 89.3088 302.783 91.4812L302.652 92.3308C302.269 94.8205 301.62 97.2619 300.716 99.6131L300.674 99.7219C299.598 102.518 298.161 105.162 296.399 107.585L296.143 107.936C294.863 109.696 293.397 111.313 291.771 112.759C289.784 114.525 287.573 116.022 285.195 117.211L284.676 117.471C282.581 118.518 280.352 119.34 278.079 119.908C275.567 120.536 272.96 120.86 270.371 120.86C268.14 120.86 265.916 120.625 263.735 120.157L262.61 119.916C259.919 119.34 257.326 118.378 254.91 117.06C252.913 115.971 251.053 114.646 249.369 113.116L248.69 112.499C246.409 110.425 244.416 108.058 242.761 105.457C241.604 103.64 240.62 101.719 239.82 99.7192L239.155 98.0575C238.789 97.1416 238.507 96.1939 238.314 95.2265C238.105 94.1835 238 93.1225 238 92.0588V87.324C238 84.3098 238.451 81.3126 239.337 78.4318C240.055 76.0985 241.053 73.8607 242.309 71.7673L244.045 68.874C245.65 66.8681 247.516 65.0859 249.593 63.575L250.253 63.0953C252.154 61.7124 254.191 60.5254 256.331 59.5525L257.832 58.8703C259.116 58.2867 260.45 57.8211 261.818 57.4791C263.664 57.0176 265.56 56.7842 267.463 56.7842H273.503C275.194 56.7842 276.855 57.2254 278.323 58.0643L279.485 58.7284C280.031 59.04 280.496 59.4742 280.844 59.9966C281.287 60.6611 281.523 61.4417 281.523 62.2403V65.2469C281.523 66.4337 281.201 67.5981 280.59 68.6157C280.013 69.5778 279.198 70.3753 278.224 70.932L277.47 71.3628C276.16 72.1116 274.695 72.5499 273.189 72.6441L268.504 72.9369C266.72 73.0484 264.97 73.4772 263.337 74.2032C261.379 75.0733 259.63 76.3518 258.207 77.953L256.949 79.3681C256.013 80.421 255.301 81.653 254.855 82.9894C254.502 84.0501 254.321 85.1608 254.321 86.2789V88.6326C254.321 91.1425 254.906 93.618 256.028 95.8629L256.107 96.0199C257.313 98.4335 259.129 100.49 261.375 101.987L261.459 102.043C262.738 102.896 264.141 103.545 265.619 103.967C266.947 104.347 268.321 104.539 269.701 104.539H270.165C272.477 104.539 274.768 104.098 276.914 103.239L277.821 102.877C279.072 102.376 280.237 101.682 281.273 100.819C282.634 99.6842 283.746 98.2805 284.538 96.6957L285.272 95.2289C285.993 93.7869 286.494 92.2451 286.759 90.6548C286.895 89.8373 286.969 89.0106 286.978 88.1818L287.534 39.8083C287.556 37.8857 288.24 36.0295 289.471 34.5524L289.778 34.1847C290.314 33.5412 290.978 33.0156 291.727 32.641Z" fill="black"/>
<path d="M509.514 56.4658C510.656 56.2754 511.813 56.1797 512.971 56.1797H513.927C516.552 56.1797 519.168 56.5016 521.714 57.1383L522.715 57.3885C524.323 57.7904 525.882 58.367 527.364 59.1081L527.564 59.2081C529.161 60.0069 530.65 61.0064 531.994 62.1825C533.854 63.8098 535.411 65.7529 536.595 67.9222L537.825 70.1772C538.228 70.9174 538.536 71.706 538.741 72.5239C538.938 73.3116 539.037 74.1205 539.037 74.9325V77.4897C539.037 79.7803 538.556 82.0454 537.626 84.1386C536.959 85.6405 536.069 87.0333 534.986 88.2702L533.138 90.3824C532.639 90.953 532.086 91.4746 531.488 91.94L531.404 92.0051C530.257 92.8974 528.949 93.5612 527.552 93.9604L527.482 93.9836C526.321 94.3706 525.132 94.666 523.925 94.8672L514.369 95.3701C513.096 95.4371 511.824 95.2407 510.63 94.7932L509.444 94.3482C508.252 93.9014 507.247 93.0642 506.592 91.9731C506.067 91.098 505.79 90.0967 505.79 89.0762V88.6141C505.79 87.1732 506.217 85.7645 507.016 84.5656L507.277 84.174C507.89 83.2544 508.7 82.4824 509.647 81.9137C510.687 81.2899 511.863 80.9287 513.074 80.8615L520.921 80.4255C521.67 80.3839 522.356 79.9919 522.773 79.3676C523.123 78.8415 523.251 78.1976 523.127 77.5776L522.971 76.7998C522.805 75.9675 522.396 75.2032 521.795 74.6031L521.769 74.5764C521.202 74.0094 520.491 73.6072 519.714 73.4128L517.933 72.9675C516.698 72.6588 515.419 72.5657 514.152 72.6924L512.622 72.8454C510.903 73.0173 509.229 73.5016 507.684 74.2744C506.034 75.0992 504.561 76.2374 503.346 77.6253L502.658 78.4124C501.531 79.6998 500.646 81.18 500.046 82.7818C499.447 84.3778 499.141 86.0684 499.141 87.773V89.6913C499.141 91.9025 499.655 94.0834 500.644 96.0611C502.023 98.8176 504.258 101.053 507.014 102.431L508.903 103.375C509.646 103.747 510.428 104.036 511.235 104.238C512.035 104.438 512.856 104.551 513.681 104.574L531.935 105.081C533.416 105.122 534.855 105.579 536.087 106.401C537.228 107.161 538.151 108.207 538.764 109.433L538.931 109.767C539.398 110.702 539.642 111.732 539.642 112.777C539.642 114.106 539.248 115.405 538.511 116.511L537.993 117.288C537.484 118.052 536.848 118.724 536.114 119.275L536.044 119.327C535.227 119.94 534.295 120.384 533.303 120.631C532.695 120.783 532.071 120.86 531.444 120.86H515.05C513.313 120.86 511.578 120.717 509.864 120.431C506.763 119.914 503.756 118.936 500.943 117.53L500.772 117.445C498.085 116.101 495.596 114.395 493.373 112.375L493.112 112.137C491.095 110.304 489.332 108.21 487.869 105.91C486.522 103.795 485.441 101.523 484.648 99.1443L484.18 97.7394C483.677 96.2307 483.311 94.6797 483.086 93.1053C482.908 91.8635 482.819 90.6107 482.819 89.3562V89.0559C482.819 86.8912 483.048 84.7326 483.502 82.616L483.818 81.1374C484.359 78.6139 485.217 76.1689 486.371 73.8605C487.624 71.354 489.216 69.0315 491.101 66.958L491.387 66.6432C493.323 64.513 495.535 62.6504 497.964 61.1048C499.952 59.8401 502.071 58.796 504.285 57.991L505.784 57.4459C506.994 57.0057 508.243 56.6776 509.514 56.4658Z" fill="black"/>
<path d="M563.217 56.7842H584.371C585.963 56.7842 587.533 57.1548 588.957 57.8667L590.012 58.3943C591.067 58.9219 591.95 59.7395 592.557 60.7512C593.136 61.7153 593.441 62.8185 593.441 63.9429V64.7383C593.441 66.2525 592.993 67.7329 592.153 68.9928C591.413 70.1033 590.395 71.0015 589.202 71.5984L589.053 71.6728C587.962 72.2182 586.764 72.5164 585.545 72.5461L564.132 73.0684C563.156 73.0922 562.228 73.4903 561.538 74.1801L561.446 74.2719C560.658 75.0598 560.287 76.1726 560.445 77.2756C560.657 78.7613 561.783 79.9517 563.255 80.2461L563.524 80.3C563.722 80.3395 563.922 80.3638 564.124 80.3725L574.602 80.8281C576.672 80.9181 578.715 81.3241 580.662 82.0321C583.114 82.9236 585.371 84.2789 587.31 86.024L587.476 86.1739C589.421 87.9239 591.02 90.0234 592.189 92.3633L592.649 93.2822C593.175 94.3342 593.558 95.4515 593.789 96.6048C593.96 97.4593 594.046 98.3285 594.046 99.1999V100.559C594.046 102.795 593.685 105.016 592.978 107.137L592.816 107.626C592.032 109.976 590.779 112.143 589.133 113.995C587.587 115.735 585.722 117.164 583.64 118.205L581.123 119.463C580.071 119.989 578.954 120.373 577.8 120.603C576.946 120.774 576.077 120.86 575.205 120.86H554.316C553.403 120.86 552.495 120.733 551.618 120.483L551.035 120.316C549.52 119.883 548.162 118.995 547.153 117.784C546.2 116.64 545.588 115.239 545.404 113.761C545.195 112.091 545.533 110.399 546.368 108.937L546.63 108.479C547.201 107.481 548.018 106.647 549.003 106.055C549.999 105.458 551.133 105.129 552.294 105.101L574.231 104.579C575.309 104.553 576.337 104.114 577.1 103.351L577.34 103.11C577.973 102.477 578.329 101.618 578.329 100.722C578.329 99.6959 577.863 98.7255 577.061 98.0845L576.524 97.6548C575.733 97.0216 574.761 96.6547 573.749 96.6065L564.537 96.1678C563.256 96.1068 561.983 95.9363 560.731 95.6582L560.669 95.6443C558.353 95.1296 556.135 94.2448 554.1 93.024L553.871 92.8868C552.053 91.7958 550.416 90.4276 549.019 88.8317L548.724 88.4941C547.513 87.1095 546.526 85.543 545.802 83.852L545.704 83.625C545.291 82.6595 544.978 81.6537 544.772 80.6237C544.576 79.6439 544.478 78.6471 544.478 77.6479V76.5632C544.478 75.0685 544.641 73.5783 544.965 72.1192C545.443 69.9698 546.264 67.9115 547.397 66.0234L547.941 65.1167C548.85 63.6015 549.997 62.2429 551.339 61.093C552.798 59.8421 554.466 58.8569 556.265 58.182L556.447 58.1138C557.732 57.632 559.069 57.3027 560.43 57.1325L563.217 56.7842Z" fill="black"/>
<path d="M383 56.9988C383.856 56.856 384.724 56.7842 385.592 56.7842H407.575C408.957 56.7842 410.319 57.1058 411.555 57.7236L411.759 57.8258C412.776 58.3343 413.671 59.0575 414.381 59.9454L414.476 60.0638C415.291 61.0827 415.818 62.3014 416.003 63.5932C416.213 65.0637 415.969 66.5634 415.305 67.892L415.26 67.9812C414.767 68.9676 414.066 69.8353 413.204 70.5243L412.301 71.2474C411.764 71.6767 411.156 72.0077 410.504 72.225C409.955 72.408 409.382 72.5081 408.803 72.5223L386.151 73.0747C385.343 73.0945 384.573 73.4245 384.001 73.9964C383.41 74.5871 383.078 75.3883 383.078 76.2237V76.4513C383.078 77.7508 383.76 78.955 384.874 79.6236L385.165 79.7982C385.779 80.1665 386.475 80.3757 387.19 80.4068L396.881 80.8281C398.951 80.9181 400.995 81.3241 402.941 82.0321C405.393 82.9236 407.65 84.2789 409.589 86.024L410.113 86.4957C411.825 88.0361 413.269 89.8496 414.387 91.8625L415.095 93.1361C415.51 93.8839 415.826 94.683 416.033 95.513C416.227 96.2885 416.325 97.0849 416.325 97.8843V101.749C416.325 103.597 416.027 105.433 415.443 107.186C414.827 109.035 413.9 110.766 412.704 112.304L412.339 112.773C410.975 114.526 409.316 116.063 407.468 117.295C405.739 118.447 403.805 119.357 401.814 119.954C399.828 120.55 397.741 120.86 395.667 120.86H377.292C375.925 120.86 374.572 120.583 373.315 120.044C371.787 119.389 370.445 118.368 369.407 117.071L368.793 116.303C368.645 116.118 368.517 115.917 368.411 115.705C368.12 115.124 368.004 114.472 368.076 113.827L368.327 111.563C368.486 110.134 369.047 108.779 369.946 107.656L370.15 107.4C370.702 106.71 371.398 106.148 372.188 105.753C372.99 105.351 373.871 105.132 374.768 105.11L396.779 104.559C397.311 104.546 397.832 104.416 398.308 104.178C399.37 103.647 400.104 102.628 400.272 101.453L400.336 101.005C400.507 99.8049 400.104 98.5941 399.247 97.7369C398.567 97.0574 397.658 96.6565 396.698 96.6128L387.747 96.206C385.851 96.1198 383.972 95.8003 382.154 95.2549L381.764 95.1379C379.83 94.5576 377.993 93.6933 376.312 92.5732L376.101 92.4321C374.317 91.2432 372.749 89.7597 371.463 88.045C370.347 86.5563 369.456 84.9111 368.82 83.1623L368.38 81.9505C367.706 80.098 367.361 78.1421 367.361 76.1709C367.361 74.937 367.496 73.7067 367.764 72.5022L367.877 71.992C368.336 69.9268 369.125 67.9492 370.214 66.1352C371.524 63.9519 373.245 62.0435 375.282 60.5158L375.817 60.1142C376.626 59.5074 377.488 58.9746 378.393 58.5223L378.539 58.4493C379.945 57.7462 381.449 57.2573 383 56.9988Z" fill="black"/>
<path d="M329.838 56.7931C331.873 56.3861 333.955 56.2604 336.024 56.4196L337.008 56.4953C339.5 56.687 341.955 57.2173 344.304 58.0715C346.369 58.8226 348.337 59.8183 350.166 61.0374L350.967 61.5712C352.221 62.4078 353.391 63.3662 354.457 64.4326C356.198 66.1732 357.646 68.183 358.747 70.3846L359.741 72.3734C361.184 75.2584 362.125 78.3677 362.525 81.5684V112.907C362.525 114.162 362.233 115.4 361.672 116.522L361.623 116.621C361.026 117.814 360.128 118.832 359.017 119.572C357.757 120.412 356.277 120.86 354.763 120.86H354.387C352.988 120.86 351.615 120.48 350.416 119.76L350.373 119.734C349.615 119.28 348.944 118.693 348.392 118.003C347.365 116.72 346.793 115.133 346.763 113.491L346.245 84.4594C346.218 82.9462 345.933 81.4487 345.401 80.0316L345.185 79.4555C344.662 78.0593 343.845 76.7914 342.791 75.7369C341.851 74.7973 340.741 74.0455 339.519 73.522L339.081 73.3344C337.798 72.7845 336.417 72.501 335.021 72.501C333.625 72.501 332.244 72.7845 330.961 73.3344L330.722 73.4366C329.369 74.0165 328.139 74.8493 327.098 75.8902L326.448 76.5403C325.92 77.0679 325.481 77.6772 325.148 78.3445C324.683 79.2729 324.433 80.2936 324.416 81.3315L323.874 113.311C323.85 114.692 323.464 116.044 322.753 117.229L322.699 117.318C322.253 118.062 321.678 118.72 321 119.262C319.707 120.296 318.099 120.86 316.443 120.86H316.063C314.432 120.86 312.837 120.378 311.48 119.473L311.249 119.318C310.383 118.742 309.657 117.98 309.122 117.088C308.467 115.997 308.121 114.747 308.121 113.475V83.3252C308.121 80.5575 308.535 77.8055 309.349 75.1602L309.394 75.0135C310.153 72.5455 311.267 70.2007 312.699 68.0522L312.908 67.7384C313.745 66.4836 314.703 65.3144 315.77 64.248C317.51 62.5075 319.52 61.0589 321.722 59.9581L324.144 58.7467C325.947 57.8454 327.862 57.1884 329.838 56.7931Z" fill="black"/>
<path d="M455.598 38.9564C456.406 38.7545 457.249 38.7434 458.062 38.924L460.031 39.3616C461.48 39.6837 462.782 40.4771 463.733 41.6178C464.738 42.8245 465.289 44.3456 465.289 45.9164V55.7462C465.289 56.3195 465.754 56.7842 466.327 56.7842H473.465C474.846 56.7842 476.209 57.1058 477.444 57.7236L477.859 57.9311C478.738 58.3703 479.51 58.9947 480.123 59.7614C481.086 60.9646 481.61 62.4596 481.61 64.0004V64.7383C481.61 66.2525 481.162 67.7329 480.322 68.9928C479.582 70.1033 478.564 71.0015 477.371 71.5984L477.272 71.6476C476.15 72.2088 474.912 72.501 473.657 72.501H467.707C466.38 72.501 465.313 73.5919 465.342 74.9184L465.874 99.3928C465.887 99.9978 466.009 100.595 466.233 101.157C466.785 102.535 467.915 103.601 469.323 104.07L470.027 104.305C470.494 104.46 470.977 104.564 471.467 104.613L475.117 104.978C476.208 105.087 477.262 105.436 478.203 106.001L478.363 106.097C479.304 106.662 480.092 107.449 480.657 108.391C481.281 109.43 481.61 110.62 481.61 111.832V113.098C481.61 114.612 481.162 116.092 480.322 117.352C479.582 118.463 478.564 119.361 477.371 119.958L477.272 120.007C476.15 120.568 474.912 120.86 473.657 120.86H471.99C470.751 120.86 469.517 120.708 468.316 120.408L467.123 120.11C464.312 119.407 461.654 118.195 459.28 116.533L459.139 116.434C457.603 115.359 456.209 114.095 454.989 112.672L454.747 112.39C453.719 111.19 452.842 109.87 452.136 108.457C451.238 106.662 450.626 104.738 450.321 102.755L449.969 100.466C449.705 98.751 449.572 97.0182 449.572 95.2827V74.1945C449.572 73.4972 449.295 72.8285 448.802 72.3354C448.514 72.0467 448.162 71.8293 447.774 71.7002L446.885 71.4037C445.492 70.9395 444.294 70.0244 443.48 68.803L443.234 68.4338C442.632 67.5307 442.248 66.4999 442.114 65.4229C442.049 64.9043 442.042 64.3801 442.094 63.8601L442.176 63.041C442.27 62.1053 442.569 61.202 443.053 60.3957C443.754 59.2278 444.81 58.315 446.067 57.7912L447.555 57.1712C447.691 57.1149 447.832 57.0743 447.976 57.0502C448.897 56.8967 449.572 56.0998 449.572 55.166V53.7617V47.292C449.572 46.3722 449.721 45.4585 450.011 44.5859C450.515 43.0762 451.429 41.7367 452.651 40.7179L453.466 40.0391C454.086 39.5223 454.815 39.1522 455.598 38.9564Z" fill="black"/>
<path d="M425.446 57.9578C426.594 57.1925 427.942 56.7842 429.322 56.7842C430.701 56.7842 432.05 57.1925 433.198 57.9578L434.502 58.8275C434.876 59.0767 435.224 59.3621 435.542 59.6797L435.658 59.7955C436.456 60.5939 437.023 61.5942 437.296 62.6896C437.42 63.1837 437.482 63.6911 437.482 64.2005V112.211C437.482 113.531 437.214 114.836 436.695 116.049L436.258 117.068C435.872 117.968 435.256 118.752 434.472 119.34C433.673 119.94 432.727 120.314 431.733 120.424L430.771 120.531C428.847 120.745 426.905 120.343 425.224 119.383L424.584 119.017C423.921 118.638 423.343 118.127 422.884 117.516C422.158 116.548 421.766 115.37 421.766 114.16V64.17C421.766 62.897 422.112 61.648 422.767 60.5564C423.302 59.6647 424.028 58.9029 424.893 58.3261L425.446 57.9578Z" fill="black"/>
<path d="M425.244 36.1436C426.53 35.4089 427.985 35.0225 429.466 35.0225H429.541C431.172 35.0225 432.766 35.5052 434.123 36.41C435.141 37.0885 435.995 37.9845 436.625 39.0334L436.739 39.2231C437.23 40.0423 437.563 40.9467 437.72 41.8891C437.96 43.326 437.782 44.8016 437.208 46.1406L437.015 46.5912C436.528 47.7284 435.778 48.7342 434.827 49.5263C433.418 50.7006 431.642 51.3438 429.808 51.3438H429.45C427.23 51.3438 425.091 50.5077 423.46 49.002L422.661 48.2647C422.269 47.9024 421.945 47.472 421.707 46.9942C421.545 46.6712 421.424 46.3295 421.345 45.9769L421.152 45.1085C420.958 44.2332 420.9 43.333 420.981 42.44L421.012 42.1013C421.11 41.023 421.45 39.9806 422.008 39.0521C422.642 37.9954 423.537 37.1193 424.607 36.5079L425.244 36.1436Z" fill="black"/>
<path fill-rule="evenodd" clip-rule="evenodd" d="M180.647 0C181.886 0 183.117 0.209668 184.286 0.620129C185.359 0.996629 186.366 1.5373 187.273 2.22285L187.922 2.71362C189.018 3.54185 190.003 4.50602 190.855 5.58294L191.182 5.9955C191.987 7.01343 192.694 8.10621 193.291 9.25885L193.528 9.71637C194.274 11.1576 194.882 12.6662 195.344 14.2222L196.06 16.6362C196.436 19.0092 196.624 21.4079 196.624 23.8104V135.356C196.624 137.011 196.479 138.662 196.189 140.291L196.15 140.506C195.903 141.897 195.54 143.265 195.066 144.596C194.414 146.426 193.556 148.175 192.508 149.81L191.547 151.31L191.172 151.761C190.11 153.039 188.883 154.171 187.523 155.125L186.713 155.694C185.989 156.202 185.205 156.62 184.378 156.936C183.149 157.407 181.845 157.648 180.529 157.648H129.202L129.202 157.65H121.303L121.303 157.648H73.0452C71.1973 157.648 69.3694 157.265 67.6771 156.522C66.3868 155.956 65.1942 155.189 64.1435 154.25L63.7171 153.869C62.9913 153.221 62.3227 152.511 61.7187 151.748L61.3462 151.277C60.3217 149.982 59.4341 148.585 58.6975 147.108L58.6577 147.028C58.1071 145.923 57.6398 144.779 57.2597 143.605L56.4202 141.012L55.5331 136.652C55.3728 135.865 55.1174 135.099 54.7726 134.373L54.6654 134.147C54.3324 133.446 53.9013 132.795 53.385 132.215L53.0041 131.788C52.8372 131.6 52.649 131.432 52.4435 131.288C51.9098 130.913 51.2758 130.708 50.6238 130.698L27.0805 130.339C26.1621 130.324 25.2692 130.035 24.5175 129.507C23.7973 129.001 23.2379 128.299 22.9062 127.484L22.7367 127.068C22.439 126.336 22.2859 125.554 22.2859 124.764V124.078C22.2859 123.228 22.4506 122.386 22.7708 121.6L23.0089 121.015C23.2748 120.361 23.7031 119.787 24.2532 119.345C24.9884 118.755 25.9027 118.434 26.8452 118.434H49.4882C50.7154 118.434 51.9339 118.642 53.0919 119.048C54.1755 119.429 55.1921 119.978 56.1038 120.676L56.4693 120.956C57.3734 121.649 58.1881 122.451 58.8947 123.344L59.2524 123.796C60.1818 124.97 60.9643 126.254 61.5825 127.618L61.7564 128.001C62.335 129.278 62.7894 130.608 63.1132 131.971L63.7548 134.674L64.3021 137.492C64.5008 138.515 64.815 139.512 65.2388 140.464L65.4474 140.932C65.8217 141.774 66.3099 142.559 66.8983 143.267L67.1659 143.589C67.709 144.243 68.3582 144.8 69.0863 145.239L69.3402 145.391C69.7522 145.639 70.1956 145.831 70.6586 145.961C71.1316 146.094 71.6207 146.161 72.112 146.161H179.485C180.557 146.161 181.618 145.947 182.606 145.531C183.482 145.162 184.285 144.64 184.979 143.991L185.161 143.82C186.025 143.011 186.729 142.047 187.237 140.978L187.5 140.425C187.939 139.499 188.265 138.52 188.47 137.516C188.64 136.682 188.726 135.83 188.726 134.978V23.9127C188.726 22.7613 188.615 21.6126 188.396 20.4823L188.206 19.5047C187.989 18.3908 187.608 17.3157 187.073 16.3148L186.954 16.093C186.446 15.1413 185.785 14.2795 184.997 13.5422L184.413 12.9956C183.907 12.5221 183.318 12.1467 182.675 11.8887C182.013 11.6233 181.307 11.4869 180.594 11.4869H72.8751C71.8827 11.4869 70.9004 11.6854 69.9859 12.0706C69.0392 12.4694 68.1854 13.0597 67.478 13.8046L67.2697 14.024C66.6231 14.7049 66.0885 15.484 65.6858 16.3322L65.4047 16.9242C64.8717 18.0467 64.5025 19.2399 64.3082 20.4673L64.0369 22.1816L63.8317 29.3855C63.7806 31.1789 63.5232 32.9785 63.0734 34.7153C62.7778 35.8566 62.3938 36.9856 61.9305 38.0697L61.5494 38.9616C61.1402 39.9192 60.6291 40.8301 60.0249 41.6783C59.3172 42.6721 58.4869 43.5727 57.5539 44.3587L57.4779 44.4228C56.5876 45.1728 55.6146 45.8188 54.5777 46.3482L53.5821 46.8566C53.2182 47.0424 52.8368 47.1916 52.4434 47.302C51.9 47.4547 51.3382 47.532 50.7738 47.532H29.5696C28.507 47.532 27.4762 47.1696 26.6475 46.5047C26.1888 46.1366 25.8037 45.6852 25.5126 45.1742L25.4332 45.035C25.0325 44.3317 24.7917 43.5488 24.7279 42.7419L24.6669 41.9721C24.585 40.9372 24.7227 39.8967 25.071 38.9187L25.3706 38.0774C25.5681 37.5228 25.8954 37.0235 26.3252 36.6212C26.9936 35.9955 27.8707 35.6407 28.7861 35.6255L50.1749 35.2722C50.9424 35.2595 51.6962 35.0666 52.3754 34.709C53.1756 34.2876 53.8434 33.653 54.305 32.8753L54.6806 32.2425C54.8994 31.8737 55.0821 31.4846 55.226 31.0806C55.4565 30.4332 55.5852 29.754 55.6074 29.0671L55.7669 24.141C55.8262 22.309 56.0172 20.4836 56.3385 18.679L56.5669 17.3962C56.8447 15.836 57.2515 14.3015 57.7832 12.8085L57.9923 12.2213C58.4478 10.9423 59.021 9.70827 59.7045 8.5352L59.8979 8.20336C60.7725 6.70245 61.8474 5.32763 63.093 4.1168L63.4931 3.72783C64.4159 2.83081 65.4514 2.0575 66.5734 1.4273L66.9978 1.18894C67.4678 0.92495 67.96 0.702413 68.4687 0.523857C69.4564 0.177118 70.4958 0 71.5426 0H180.647Z" fill="black"/>
<path d="M1.67773 64.0501C2.4123 63.3625 3.38085 62.9799 4.38703 62.9799H56.3842C57.5284 62.9799 58.6643 63.1735 59.744 63.5525C60.9037 63.9596 61.9798 64.5741 62.9198 65.366L63.1666 65.5739C63.9319 66.2186 64.6128 66.9573 65.1933 67.7723L65.6623 68.4308C66.6427 69.8075 67.4277 71.3135 67.9947 72.9057L68.5913 74.5811C68.9397 75.5595 69.2063 76.5652 69.3884 77.5877C69.5817 78.6738 69.679 79.7749 69.679 80.8781V82.7404C69.679 84.6131 69.4768 86.4803 69.0759 88.3096L68.9806 88.7446C68.6946 90.05 68.2863 91.3255 67.7612 92.5543L67.7374 92.6099C67.1528 93.978 66.4227 95.2792 65.5597 96.491L64.98 97.3049C64.3538 98.1841 63.6193 98.9809 62.7938 99.6763L62.6939 99.7605C61.7149 100.585 60.6105 101.248 59.4224 101.725C57.9983 102.296 56.4781 102.59 54.9437 102.59H12.5445C11.7305 102.59 10.9426 102.302 10.3201 101.778C10.0245 101.529 9.77281 101.232 9.57554 100.9L9.12772 100.145C8.68946 99.4066 8.41074 98.5845 8.30953 97.7318C8.22446 97.0152 8.26623 96.2892 8.43292 95.587L8.73266 94.3244C8.92602 93.51 9.31863 92.7563 9.87525 92.131L10.0135 91.9758C10.2944 91.6602 10.6258 91.3936 10.9941 91.1867C11.5544 90.872 12.1852 90.704 12.8279 90.6984L55.4004 90.3272C56.6158 90.3166 57.7992 89.9369 58.7939 89.2386C59.6419 88.6433 60.3211 87.8384 60.7655 86.9025L60.9677 86.4767C61.1327 86.129 61.2608 85.765 61.3497 85.3905C61.4483 84.9752 61.4981 84.5499 61.4981 84.123V82.0283C61.4981 80.9603 61.2736 79.9042 60.8393 78.9284L60.6915 78.5963C60.2946 77.7047 59.6904 76.9209 58.9292 76.3102L58.5852 76.0341C58.2726 75.7833 57.9197 75.5873 57.5415 75.4546C57.1727 75.3251 56.785 75.2576 56.3941 75.2547L4.69591 74.8747C3.66429 74.8671 2.66539 74.5118 1.86073 73.8661C1.37753 73.4784 0.97792 72.9968 0.68604 72.4504L0.584281 72.2599C0.383665 71.8843 0.23231 71.4844 0.133958 71.0701C0.0449566 70.6952 0 70.3112 0 69.9259V68.369C0 67.4288 0.20923 66.5003 0.61252 65.6509L0.805679 65.2441C1.01893 64.7949 1.31475 64.3899 1.67773 64.0501Z" fill="black"/>
<path d="M103.119 23.6595C103.387 23.4711 103.707 23.3699 104.035 23.3699H105.284C106.485 23.3699 107.612 23.9508 108.309 24.9292L108.398 25.0547C108.538 25.2509 108.65 25.4655 108.731 25.6924C108.837 25.9901 108.888 26.2948 108.882 26.6107C108.796 30.9101 108.175 63.3761 108.891 63.3761C109.367 63.3761 111.531 63.3761 113.107 63.3761C114.191 63.3761 115.221 63.8508 115.926 64.6754L115.973 64.7312C116.325 65.1422 116.573 65.6309 116.698 66.157C116.759 66.4147 116.79 66.6786 116.79 66.9435V68.5011C116.79 69.2994 116.612 70.0878 116.27 70.8091L115.93 71.5238C115.754 71.8951 115.485 72.2144 115.148 72.4505C114.748 72.7316 114.271 72.8825 113.781 72.8825H97.3503C96.4277 72.8825 95.5396 72.5317 94.866 71.9011C94.4427 71.5048 94.1203 71.013 93.9257 70.4667L93.8921 70.3723C93.7369 69.9364 93.6576 69.4772 93.6576 69.0145V67.5413C93.6576 66.8838 93.7908 66.2332 94.0491 65.6286L94.218 65.2332C94.406 64.7934 94.6944 64.4038 95.0602 64.0957C95.6118 63.6309 96.3088 63.3761 97.0302 63.3761C98.6743 63.3761 101.609 63.3761 102.121 63.3761C102.838 63.3761 101.838 38.8178 101.838 38.0256C101.838 37.3353 99.4824 40.5547 98.8762 41.3944C98.7823 41.5246 98.6682 41.6377 98.5368 41.7299C98.2989 41.897 98.0152 41.9866 97.7244 41.9866H97.1682C96.3626 41.9866 95.5871 41.6803 94.999 41.1298L94.866 41.0053C94.4427 40.609 94.1203 40.1172 93.9257 39.5709L93.8921 39.4765C93.7369 39.0406 93.6576 38.5813 93.6576 38.1186V37.6248C93.6576 36.3335 94.0196 35.0681 94.7025 33.9722L95.6323 32.4802L98.4533 28.9153L101.556 25.3504L102.844 23.9044C102.926 23.8125 103.018 23.7303 103.119 23.6595Z" fill="black"/>
<path d="M142.874 83.7802C143.159 83.6465 143.471 83.5772 143.786 83.5772H144.779C145.294 83.5772 145.8 83.7096 146.249 83.9617C146.724 84.2284 147.117 84.6194 147.387 85.0928L147.542 85.3647C147.909 86.0095 148.096 86.7235 148.084 87.4656C147.977 93.7033 147.493 123.979 148.103 123.979C148.519 123.979 150.533 123.979 152.037 123.979C153.122 123.979 154.151 124.454 154.856 125.279L154.903 125.335C155.255 125.746 155.503 126.234 155.628 126.76C155.689 127.018 155.72 127.282 155.72 127.547V128.767C155.72 129.781 155.447 130.778 154.929 131.65L154.452 132.454C154.358 132.612 154.232 132.748 154.081 132.854C153.863 133.007 153.602 133.09 153.335 133.09H136.987C135.806 133.09 134.685 132.573 133.918 131.676L133.716 131.439C133.53 131.221 133.385 130.971 133.288 130.7C133.198 130.447 133.152 130.18 133.152 129.911V128.302C133.152 127.288 133.425 126.292 133.943 125.419L134.42 124.615C134.514 124.457 134.64 124.321 134.791 124.215C135.009 124.062 135.269 123.979 135.536 123.979C136.888 123.979 141.154 123.979 141.615 123.979C142.164 123.979 141.333 99.4212 141.333 98.2329C141.333 97.4006 139.949 99.4829 139.12 100.805C138.721 101.441 138.116 101.921 137.399 102.145L137.329 102.167C136.474 102.434 135.543 102.288 134.81 101.773C134.461 101.529 134.171 101.21 133.96 100.84L133.763 100.494C133.363 99.791 133.152 98.9956 133.152 98.1863V97.7073C133.152 96.4976 133.491 95.312 134.131 94.2853L135.127 92.6875L139.358 87.5382L142.162 84.3168C142.359 84.0903 142.602 83.9075 142.874 83.7802Z" fill="black"/>
<path fill-rule="evenodd" clip-rule="evenodd" d="M137.91 23.618C138.497 23.4534 139.103 23.3699 139.712 23.3699H145.802C146.95 23.3699 148.089 23.5805 149.161 23.9912C150.142 24.3666 151.052 24.9035 151.855 25.5798L152.078 25.7682C152.996 26.5409 153.782 27.4567 154.407 28.4803L154.433 28.5231C154.913 29.3098 155.296 30.1517 155.575 31.0305L155.827 31.8274C156.131 32.7891 156.356 33.7743 156.498 34.773L156.848 37.2334V56.1358C156.848 57.7906 156.702 59.4422 156.412 61.0714L156.246 62.0071C156.084 62.9182 155.846 63.8142 155.536 64.686L155.224 65.5612C154.805 66.7369 154.193 67.8343 153.413 68.8082L153.258 69.0011C152.462 69.995 151.482 70.8264 150.371 71.4501C149.615 71.875 148.806 72.199 147.965 72.4136L147.644 72.4956C146.638 72.7525 145.603 72.8825 144.565 72.8825H141.89C140.585 72.8825 139.287 72.6914 138.038 72.3155L137.508 72.156C136.491 71.8501 135.53 71.3832 134.661 70.7731L134.468 70.6376C133.968 70.2869 133.511 69.8795 133.105 69.4237C132.575 68.8282 132.138 68.156 131.809 67.4299L131.151 65.9768C130.606 64.7746 130.192 63.5172 129.916 62.2265L129.485 60.2073L129.202 57.4345V38.4217L129.531 35.6541C129.688 34.3333 129.969 33.0303 130.37 31.7622L130.596 31.049C130.795 30.4198 131.045 29.808 131.345 29.2198L131.477 28.9598C132.025 27.8821 132.757 26.9083 133.64 26.082C134.438 25.3349 135.349 24.7183 136.339 24.2548L136.888 23.9981C137.218 23.8436 137.56 23.7165 137.91 23.618ZM150.063 56.7335C150.313 54.2625 150.305 51.2649 150.273 47.8896C150.262 46.687 150.267 45.5445 150.272 44.4648C150.308 36.2803 150.328 31.7126 143.173 32.0396C135.359 31.7754 135.425 39.0727 135.489 46.0924C135.495 46.7325 135.5 47.3704 135.5 48C135.5 48.3796 135.499 48.7638 135.497 49.151C135.472 56.4489 135.444 64.8311 143.173 64C147.52 64.6126 149.242 62.2897 149.901 58.0165C149.985 57.5931 150.039 57.1644 150.063 56.7335Z" fill="black"/>
<path fill-rule="evenodd" clip-rule="evenodd" d="M101.166 83.9326C102.175 83.6964 103.208 83.5772 104.245 83.5772H106.055C107.003 83.5772 107.948 83.6781 108.874 83.8781L109.458 84.0042C110.576 84.2458 111.644 84.6791 112.615 85.2849C113.327 85.729 113.979 86.2616 114.557 86.8699L114.689 87.009C115.52 87.8844 116.207 88.886 116.725 89.9765L116.962 90.476C117.41 91.4196 117.758 92.4077 117.999 93.424L118.483 95.4602L118.765 97.4407V117.518C118.765 118.918 118.641 120.316 118.396 121.694L118.257 122.474C118.032 123.737 117.664 124.971 117.159 126.152L116.933 126.681C116.464 127.779 115.843 128.806 115.089 129.733L114.788 130.103C114.244 130.771 113.612 131.36 112.907 131.855L112.813 131.92C112.084 132.433 111.279 132.829 110.427 133.094C109.596 133.354 108.73 133.486 107.859 133.486H102.88C101.817 133.486 100.762 133.306 99.7595 132.954C98.5261 132.521 97.3963 131.836 96.4419 130.943L96.3258 130.834C95.6782 130.228 95.1126 129.54 94.6435 128.787L94.3426 128.304C93.7004 127.273 93.1901 126.166 92.8237 125.009L92.6679 124.516C92.3877 123.632 92.1742 122.727 92.0291 121.81L91.9718 121.448C91.7795 120.233 91.6829 119.004 91.6829 117.774V99.3049C91.6829 97.8015 91.8272 96.3016 92.1139 94.8257L92.2505 94.1223C92.4359 93.1678 92.7092 92.2325 93.067 91.3284L93.2874 90.7711C93.7198 89.6782 94.3133 88.6562 95.0482 87.739L95.3096 87.4128C96.0817 86.4491 97.032 85.643 98.1087 85.0383C98.8987 84.5946 99.7474 84.2646 100.63 84.0581L101.166 83.9326ZM112.271 114.908C112.357 113.09 112.364 111.061 112.35 108.854C112.344 107.904 112.345 106.992 112.346 106.119C112.354 97.4236 112.359 92.6274 105.25 93.0038C97.957 92.4189 98.0369 98.3937 98.1319 105.503C98.1466 106.599 98.1616 107.723 98.15 108.854C98.1424 109.589 98.1286 110.318 98.115 111.037C97.9718 118.597 97.8501 125.022 105.25 124.704C110.221 125.46 111.759 122.142 112.196 116.169C112.236 115.749 112.261 115.329 112.271 114.908Z" fill="black"/>
</svg>
