<svg width="1080" height="1080" viewBox="0 0 1080 1080" fill="none" xmlns="http://www.w3.org/2000/svg">
<path d="M479.25 185.625L489.375 189.844L519.75 221.484L517.725 229.922L442.8 307.969L424.575 331.172L402.3 352.266L386.1 367.031L323.325 432.422H319.275L317.25 438.75L272.7 485.156L254.475 508.359L240.3 523.125L222.075 537.891L213.975 544.219L218.025 552.656L268.65 605.391L282.825 622.266L333.45 675L337.5 677.109V681.328L345.6 685.547L359.775 700.312L382.05 719.297L434.7 774.141L448.875 791.016L495.45 839.531L511.65 854.297L529.875 873.281L546.075 888.047L566.325 907.031L610.875 953.438L625.05 970.312L675.675 1023.05L687.825 1033.59L685.8 1044.14L655.425 1071.56L647.325 1073.67L627.075 1056.8L616.95 1046.25L584.55 1010.39L548.1 972.422L531.9 957.656L475.2 898.594L459 883.828L440.775 866.953L426.6 850.078L333.45 753.047L317.25 738.281L292.95 712.969L272.7 696.094L248.4 668.672L207.9 626.484L191.7 611.719L139.05 556.875L132.975 548.438L135 540L163.35 516.797L258.525 417.656L272.7 400.781L321.3 350.156L337.5 335.391L353.7 318.516H357.75L361.8 310.078L369.9 301.641H373.95L378 293.203L402.3 267.891L418.5 253.125L438.75 229.922L452.925 213.047L479.25 185.625Z" fill="#E22118"/>
<path d="M515.7 596.953H987.525L989.55 603.281L975.375 615.937L961.2 632.812L934.875 664.453L914.625 685.547H910.575L908.55 691.875L886.275 710.859L878.175 719.297H874.125V723.516L857.925 738.281L787.05 812.109L770.85 833.203L728.325 877.5L708.075 894.375L687.825 915.469L671.625 930.234L669.6 934.453L661.5 932.344L627.075 896.484L629.1 888.047L647.325 873.281L772.875 742.5L791.1 719.297L811.35 700.312L827.55 685.547L851.85 662.344L853.875 658.125L588.6 660.234H515.7L513.675 658.125V599.062L515.7 596.953Z" fill="#4F5480"/>
<path d="M102.6 582.188L112.725 584.297L145.125 615.938L213.975 687.656L236.25 706.641L248.4 717.188V721.406L256.5 725.625V729.844L262.575 731.953L276.75 748.828L280.8 757.266L288.9 761.484L380.025 856.406L386.1 860.625V864.844L394.2 869.062L426.6 900.703L450.9 926.016L465.075 942.891L479.25 957.656L491.4 968.203L501.525 980.859L517.725 995.625L556.2 1035.7L554.175 1044.14L533.925 1063.12H529.875L527.85 1069.45L517.725 1075.78L491.4 1054.69L477.225 1039.92L461.025 1025.16L436.725 997.734L418.5 976.641L365.85 921.797L349.65 907.031L333.45 890.156L313.2 873.281L262.575 820.547L252.45 807.891L248.4 805.781V801.562L240.3 797.344L232.2 788.906V784.688L224.1 780.469V776.25L216 772.031L157.275 710.859L135 691.875L102.6 658.125L84.375 634.922L72.225 622.266L74.25 613.828L88.425 601.172L102.6 582.188Z" fill="#E22118"/>
<path d="M39.825 649.688L47.925 651.797L80.325 683.438L116.775 721.406L132.975 736.172L276.75 885.938L292.95 900.703L307.125 915.469L323.325 930.234L430.65 1042.03L426.6 1050.47L406.35 1069.45L396.225 1080L388.125 1077.89L373.95 1065.23L353.7 1048.36L268.65 959.766L252.45 938.672L236.25 923.906L213.975 900.703L197.775 885.938L157.275 847.969L92.475 780.469L78.3 763.594L47.925 731.953L31.725 717.188L3.375 691.875L9.45 681.328L35.775 653.906L39.825 649.688Z" fill="#E22118"/>
<path d="M718.2 504.141H1036.12L1046.25 506.25L1048.27 516.797V554.766L1044.22 558.984L959.175 561.094H515.7L513.675 556.875V506.25L718.2 504.141Z" fill="#4F5480"/>
<path d="M349.65 48.5156L357.75 50.625L392.175 86.4844L380.025 101.25L361.8 120.234L347.625 137.109L333.45 151.875L317.25 166.641L301.05 183.516L284.85 198.281L256.5 229.922L244.35 244.688H240.3L236.25 253.125L161.325 331.172H157.275L155.25 337.5L132.975 356.484L102.6 388.125L84.375 411.328L49.95 447.188L39.825 442.969L13.5 415.547L7.425 411.328V402.891L23.625 388.125L60.075 350.156L76.275 335.391L96.525 314.297L110.7 297.422L220.05 183.516L242.325 164.531L254.475 149.766H258.525L262.575 141.328L292.95 107.578L349.65 48.5156Z" fill="#E22118"/>
<path d="M416.475 122.344L426.6 128.672L448.875 153.984L450.9 162.422L436.725 179.297L420.525 194.062L386.1 229.922L371.925 246.797L347.625 272.109H343.575L341.55 278.438L329.4 288.984L317.25 303.75L301.05 318.516L149.175 476.719L139.05 489.375L122.85 504.141L112.725 514.688L104.625 510.469L86.4 487.266L76.275 476.719L80.325 468.281L98.55 447.188L112.725 430.312L179.55 360.703L201.825 341.719L258.525 282.656L272.7 265.781L351.675 183.516L373.95 164.531L402.3 135L416.475 122.344Z" fill="#E22118"/>
<path d="M463.05 21.0938L471.15 25.3125L491.4 46.4062L507.6 61.1719L525.825 80.1562L542.025 94.9219L625.05 181.406L641.25 196.172L657.45 213.047L673.65 227.812L734.4 291.094L742.5 297.422V301.641L750.6 305.859L774.9 331.172L789.075 348.047L793.125 352.266L791.1 360.703L774.9 379.688L762.75 394.453L752.625 390.234L732.375 369.141L710.1 350.156L683.775 324.844L655.425 295.312L649.35 291.094V286.875L641.25 282.656L625.05 265.781V261.562L616.95 257.344L598.725 234.141L568.35 202.5L546.075 183.516L525.825 164.531L509.625 149.766L495.45 135L479.25 120.234L438.75 78.0469L428.625 65.3906L432.675 56.9531L450.9 35.8594L463.05 21.0938Z" fill="#4F5480"/>
<path d="M1015.88 628.594L1023.98 630.703L1034.1 643.36L1050.3 658.125L1058.4 668.672L1046.25 683.438L1030.05 700.313L1013.85 715.078L951.075 780.469L936.9 797.344L912.6 822.656L910.575 826.875H906.525L902.475 835.313L894.375 843.75H890.325L886.275 852.188H882.225L878.175 860.625L861.975 875.391L831.6 904.922L785.025 953.438L766.8 976.641L740.475 1004.06L732.375 1001.95L695.925 963.985L706.05 949.219L722.25 934.453L791.1 862.735L805.275 845.86L839.7 812.11L1015.88 628.594Z" fill="#4F5480"/>
<path d="M590.625 10.5469L598.725 12.6562L616.95 35.8594L651.375 71.7188L667.575 86.4844L722.25 143.438L726.3 145.547V149.766L734.4 153.984L756.675 177.188L772.875 191.953L785.025 204.609V208.828H789.075L803.25 225.703L817.425 240.469L833.625 255.234L876.15 299.531L888.3 310.078V314.297L896.4 318.516L918.675 341.719L916.65 348.047L900.45 362.812L884.25 379.688L876.15 377.578L853.875 356.484L831.6 337.5L774.9 278.438L760.725 261.562L712.125 210.938L695.925 196.172L669.6 172.969L649.35 153.984L608.85 111.797L594.675 94.9219L570.375 69.6094L554.175 54.8438L558.225 44.2969L590.625 10.5469Z" fill="#4F5480"/>
</svg>
